<mxfile host="app.diagrams.net" modified="2024-01-13T10:00:16.238Z" agent="Mozilla/5.0 (Windows NT 10.0; Win64; x64) AppleWebKit/537.36 (KHTML, like Gecko) Chrome/120.0.0.0 Safari/537.36" etag="RxDhcK0nn35slknieB54" version="22.1.16" type="github">
  <diagram name="Page-1" id="D-9NqTTnirOL9pZMctgw">
    <mxGraphModel dx="1050" dy="577" grid="1" gridSize="10" guides="1" tooltips="1" connect="1" arrows="1" fold="1" page="1" pageScale="3" pageWidth="2000" pageHeight="2000" math="0" shadow="0">
      <root>
        <mxCell id="0" />
        <mxCell id="1" parent="0" />
        <mxCell id="JUd5yHKMKR-s4hX0yN-B-4" value="" style="rounded=1;whiteSpace=wrap;html=1;arcSize=3;" parent="1" vertex="1">
          <mxGeometry x="2272" y="2545" width="490" height="520" as="geometry" />
        </mxCell>
        <mxCell id="JUd5yHKMKR-s4hX0yN-B-5" value="" style="rounded=1;whiteSpace=wrap;html=1;arcSize=23;" parent="1" vertex="1">
          <mxGeometry x="2272" y="2545" width="490" height="60" as="geometry" />
        </mxCell>
        <mxCell id="JUd5yHKMKR-s4hX0yN-B-6" value="" style="rounded=1;whiteSpace=wrap;html=1;arcSize=3;" parent="1" vertex="1">
          <mxGeometry x="2272" y="2595" width="490" height="50" as="geometry" />
        </mxCell>
        <mxCell id="akrNPFHpnsv7y5JYQiHU-106" style="edgeStyle=orthogonalEdgeStyle;rounded=0;orthogonalLoop=1;jettySize=auto;html=1;" parent="1" source="JUd5yHKMKR-s4hX0yN-B-8" edge="1">
          <mxGeometry relative="1" as="geometry">
            <mxPoint x="2517" y="2480" as="targetPoint" />
          </mxGeometry>
        </mxCell>
        <mxCell id="JUd5yHKMKR-s4hX0yN-B-8" value="" style="rounded=1;whiteSpace=wrap;html=1;" parent="1" vertex="1">
          <mxGeometry x="2402" y="2555" width="230" height="30" as="geometry" />
        </mxCell>
        <mxCell id="JUd5yHKMKR-s4hX0yN-B-9" value="" style="rounded=1;whiteSpace=wrap;html=1;" parent="1" vertex="1">
          <mxGeometry x="2672" y="2555" width="70" height="30" as="geometry" />
        </mxCell>
        <mxCell id="akrNPFHpnsv7y5JYQiHU-108" style="edgeStyle=orthogonalEdgeStyle;rounded=0;orthogonalLoop=1;jettySize=auto;html=1;" parent="1" source="JUd5yHKMKR-s4hX0yN-B-10" edge="1">
          <mxGeometry relative="1" as="geometry">
            <mxPoint x="2200" y="2570" as="targetPoint" />
          </mxGeometry>
        </mxCell>
        <mxCell id="JUd5yHKMKR-s4hX0yN-B-10" value="&lt;font style=&quot;font-size: 14px;&quot; face=&quot;Verdana&quot;&gt;LOGO&lt;/font&gt;" style="text;html=1;align=center;verticalAlign=middle;resizable=0;points=[];autosize=1;strokeColor=none;fillColor=none;" parent="1" vertex="1">
          <mxGeometry x="2287" y="2555" width="60" height="30" as="geometry" />
        </mxCell>
        <mxCell id="JUd5yHKMKR-s4hX0yN-B-11" value="&lt;font style=&quot;font-size: 14px;&quot; face=&quot;Verdana&quot;&gt;Search Bar...&lt;/font&gt;" style="text;html=1;align=center;verticalAlign=middle;resizable=0;points=[];autosize=1;strokeColor=none;fillColor=none;" parent="1" vertex="1">
          <mxGeometry x="1527.5" y="1932.5" width="110" height="30" as="geometry" />
        </mxCell>
        <mxCell id="nLOa7aUXmN414oC4y6V_-155" style="edgeStyle=orthogonalEdgeStyle;rounded=0;orthogonalLoop=1;jettySize=auto;html=1;" parent="1" source="JUd5yHKMKR-s4hX0yN-B-12" edge="1">
          <mxGeometry relative="1" as="geometry">
            <mxPoint x="1620" y="2110" as="targetPoint" />
            <Array as="points">
              <mxPoint x="2702" y="2330" />
              <mxPoint x="1620" y="2330" />
              <mxPoint x="1620" y="2090" />
            </Array>
          </mxGeometry>
        </mxCell>
        <mxCell id="JUd5yHKMKR-s4hX0yN-B-12" value="&lt;font style=&quot;font-size: 14px;&quot; face=&quot;Verdana&quot;&gt;Login&lt;/font&gt;" style="text;html=1;align=center;verticalAlign=middle;resizable=0;points=[];autosize=1;strokeColor=none;fillColor=none;" parent="1" vertex="1">
          <mxGeometry x="2672" y="2555" width="60" height="30" as="geometry" />
        </mxCell>
        <mxCell id="JUd5yHKMKR-s4hX0yN-B-31" value="" style="edgeStyle=orthogonalEdgeStyle;rounded=0;orthogonalLoop=1;jettySize=auto;html=1;" parent="1" source="JUd5yHKMKR-s4hX0yN-B-13" target="JUd5yHKMKR-s4hX0yN-B-30" edge="1">
          <mxGeometry relative="1" as="geometry" />
        </mxCell>
        <mxCell id="JUd5yHKMKR-s4hX0yN-B-13" value="&lt;font style=&quot;font-size: 14px;&quot; face=&quot;Verdana&quot;&gt;Fashion&amp;nbsp; &amp;nbsp; &amp;nbsp;Electronics&amp;nbsp; &amp;nbsp; &amp;nbsp;Sports&amp;nbsp; &amp;nbsp; &amp;nbsp;Fitness&amp;nbsp; &amp;nbsp; &amp;nbsp;Household&amp;nbsp; &amp;nbsp; &amp;nbsp;Books&lt;/font&gt;" style="text;html=1;align=center;verticalAlign=middle;resizable=0;points=[];autosize=1;strokeColor=none;fillColor=none;" parent="1" vertex="1">
          <mxGeometry x="2272" y="2605" width="490" height="30" as="geometry" />
        </mxCell>
        <mxCell id="JUd5yHKMKR-s4hX0yN-B-17" value="" style="rounded=1;whiteSpace=wrap;html=1;arcSize=7;fillColor=#eeeeee;strokeColor=#36393d;" parent="1" vertex="1">
          <mxGeometry x="2382" y="2835" width="60" height="70" as="geometry" />
        </mxCell>
        <mxCell id="JUd5yHKMKR-s4hX0yN-B-18" value="" style="rounded=1;whiteSpace=wrap;html=1;arcSize=7;fillColor=#eeeeee;strokeColor=#36393d;" parent="1" vertex="1">
          <mxGeometry x="2452" y="2835" width="60" height="70" as="geometry" />
        </mxCell>
        <mxCell id="JUd5yHKMKR-s4hX0yN-B-19" value="" style="rounded=1;whiteSpace=wrap;html=1;arcSize=7;fillColor=#eeeeee;strokeColor=#36393d;" parent="1" vertex="1">
          <mxGeometry x="2522" y="2835" width="60" height="70" as="geometry" />
        </mxCell>
        <mxCell id="6C7twjUIRTZ6ljj86NKA-40" style="edgeStyle=orthogonalEdgeStyle;rounded=0;orthogonalLoop=1;jettySize=auto;html=1;exitX=1;exitY=0.5;exitDx=0;exitDy=0;entryX=0;entryY=0.5;entryDx=0;entryDy=0;" parent="1" source="JUd5yHKMKR-s4hX0yN-B-20" target="6C7twjUIRTZ6ljj86NKA-13" edge="1">
          <mxGeometry relative="1" as="geometry" />
        </mxCell>
        <mxCell id="JUd5yHKMKR-s4hX0yN-B-20" value="" style="rounded=1;whiteSpace=wrap;html=1;arcSize=7;fillColor=#eeeeee;strokeColor=#36393d;" parent="1" vertex="1">
          <mxGeometry x="2592" y="2835" width="60" height="70" as="geometry" />
        </mxCell>
        <mxCell id="JUd5yHKMKR-s4hX0yN-B-25" value="&lt;font style=&quot;font-size: 14px;&quot; face=&quot;Verdana&quot;&gt;SAMPLE PRODUCTS&lt;/font&gt;" style="text;html=1;align=center;verticalAlign=middle;resizable=0;points=[];autosize=1;strokeColor=none;fillColor=none;" parent="1" vertex="1">
          <mxGeometry x="2437" y="2790" width="160" height="30" as="geometry" />
        </mxCell>
        <mxCell id="JUd5yHKMKR-s4hX0yN-B-26" value="&lt;font style=&quot;font-size: 14px;&quot; face=&quot;Verdana&quot;&gt;many more...&lt;/font&gt;" style="text;html=1;align=center;verticalAlign=middle;resizable=0;points=[];autosize=1;strokeColor=none;fillColor=none;" parent="1" vertex="1">
          <mxGeometry x="2457" y="2930" width="120" height="30" as="geometry" />
        </mxCell>
        <mxCell id="JUd5yHKMKR-s4hX0yN-B-33" value="" style="edgeStyle=orthogonalEdgeStyle;rounded=0;orthogonalLoop=1;jettySize=auto;html=1;" parent="1" source="JUd5yHKMKR-s4hX0yN-B-30" target="JUd5yHKMKR-s4hX0yN-B-32" edge="1">
          <mxGeometry relative="1" as="geometry" />
        </mxCell>
        <mxCell id="JUd5yHKMKR-s4hX0yN-B-30" value="&lt;font style=&quot;font-size: 14px;&quot; face=&quot;Verdana&quot;&gt;On Clicking any category&amp;nbsp;&lt;br&gt;it should redirect to product list&lt;br&gt;&lt;div style=&quot;&quot;&gt;&lt;span style=&quot;background-color: initial;&quot;&gt;&amp;nbsp;page of particular category&lt;/span&gt;&lt;/div&gt;&lt;/font&gt;" style="text;html=1;align=left;verticalAlign=middle;resizable=0;points=[];autosize=1;strokeColor=none;fillColor=none;" parent="1" vertex="1">
          <mxGeometry x="2952" y="2590" width="250" height="60" as="geometry" />
        </mxCell>
        <mxCell id="JUd5yHKMKR-s4hX0yN-B-32" value="" style="rounded=1;whiteSpace=wrap;html=1;arcSize=3;" parent="1" vertex="1">
          <mxGeometry x="3393" y="2480" width="497" height="280" as="geometry" />
        </mxCell>
        <mxCell id="JUd5yHKMKR-s4hX0yN-B-34" value="" style="rounded=1;whiteSpace=wrap;html=1;arcSize=7;fillColor=#eeeeee;strokeColor=#36393d;" parent="1" vertex="1">
          <mxGeometry x="3596" y="2565" width="60" height="70" as="geometry" />
        </mxCell>
        <mxCell id="JUd5yHKMKR-s4hX0yN-B-35" value="" style="rounded=1;whiteSpace=wrap;html=1;arcSize=7;fillColor=#eeeeee;strokeColor=#36393d;" parent="1" vertex="1">
          <mxGeometry x="3666" y="2565" width="60" height="70" as="geometry" />
        </mxCell>
        <mxCell id="JUd5yHKMKR-s4hX0yN-B-36" value="" style="rounded=1;whiteSpace=wrap;html=1;arcSize=7;fillColor=#eeeeee;strokeColor=#36393d;" parent="1" vertex="1">
          <mxGeometry x="3736" y="2565" width="60" height="70" as="geometry" />
        </mxCell>
        <mxCell id="JUd5yHKMKR-s4hX0yN-B-37" value="" style="rounded=1;whiteSpace=wrap;html=1;arcSize=7;fillColor=#eeeeee;strokeColor=#36393d;" parent="1" vertex="1">
          <mxGeometry x="3806" y="2565" width="60" height="70" as="geometry" />
        </mxCell>
        <mxCell id="6C7twjUIRTZ6ljj86NKA-2" style="edgeStyle=orthogonalEdgeStyle;rounded=0;orthogonalLoop=1;jettySize=auto;html=1;" parent="1" source="JUd5yHKMKR-s4hX0yN-B-38" edge="1">
          <mxGeometry relative="1" as="geometry">
            <mxPoint x="3452" y="2830" as="targetPoint" />
            <Array as="points">
              <mxPoint x="3630" y="2780" />
              <mxPoint x="3452" y="2780" />
            </Array>
          </mxGeometry>
        </mxCell>
        <mxCell id="JUd5yHKMKR-s4hX0yN-B-38" value="" style="rounded=1;whiteSpace=wrap;html=1;arcSize=7;fillColor=#eeeeee;strokeColor=#36393d;" parent="1" vertex="1">
          <mxGeometry x="3596" y="2654" width="60" height="70" as="geometry" />
        </mxCell>
        <mxCell id="JUd5yHKMKR-s4hX0yN-B-39" value="" style="rounded=1;whiteSpace=wrap;html=1;arcSize=7;fillColor=#eeeeee;strokeColor=#36393d;" parent="1" vertex="1">
          <mxGeometry x="3666" y="2654" width="60" height="70" as="geometry" />
        </mxCell>
        <mxCell id="JUd5yHKMKR-s4hX0yN-B-40" value="" style="rounded=1;whiteSpace=wrap;html=1;arcSize=7;fillColor=#eeeeee;strokeColor=#36393d;" parent="1" vertex="1">
          <mxGeometry x="3736" y="2654" width="60" height="70" as="geometry" />
        </mxCell>
        <mxCell id="JUd5yHKMKR-s4hX0yN-B-41" value="" style="rounded=1;whiteSpace=wrap;html=1;arcSize=7;fillColor=#eeeeee;strokeColor=#36393d;" parent="1" vertex="1">
          <mxGeometry x="3806" y="2654" width="60" height="70" as="geometry" />
        </mxCell>
        <mxCell id="JUd5yHKMKR-s4hX0yN-B-42" value="&lt;font style=&quot;font-size: 14px;&quot; face=&quot;Verdana&quot;&gt;CATEGORY NAME&lt;/font&gt;" style="text;html=1;align=center;verticalAlign=middle;resizable=0;points=[];autosize=1;strokeColor=none;fillColor=none;" parent="1" vertex="1">
          <mxGeometry x="3422" y="2503" width="140" height="29" as="geometry" />
        </mxCell>
        <mxCell id="6C7twjUIRTZ6ljj86NKA-38" style="edgeStyle=orthogonalEdgeStyle;rounded=0;orthogonalLoop=1;jettySize=auto;html=1;entryX=1;entryY=0.25;entryDx=0;entryDy=0;" parent="1" source="6C7twjUIRTZ6ljj86NKA-3" target="6C7twjUIRTZ6ljj86NKA-13" edge="1">
          <mxGeometry relative="1" as="geometry" />
        </mxCell>
        <mxCell id="6C7twjUIRTZ6ljj86NKA-3" value="" style="rounded=1;whiteSpace=wrap;html=1;arcSize=7;fillColor=#eeeeee;strokeColor=#36393d;" parent="1" vertex="1">
          <mxGeometry x="3393" y="2830" width="200" height="250" as="geometry" />
        </mxCell>
        <mxCell id="6C7twjUIRTZ6ljj86NKA-4" value="" style="rounded=1;whiteSpace=wrap;html=1;arcSize=7;gradientColor=none;fillColor=default;" parent="1" vertex="1">
          <mxGeometry x="3406" y="2840" width="174" height="100" as="geometry" />
        </mxCell>
        <mxCell id="6C7twjUIRTZ6ljj86NKA-6" value="&lt;font style=&quot;font-size: 14px;&quot; face=&quot;Verdana&quot;&gt;1. Product Name&lt;br&gt;2. Product Descrption&lt;br&gt;3. Product Owner Name&lt;br&gt;4. Rating&lt;br&gt;&lt;/font&gt;" style="text;html=1;align=left;verticalAlign=middle;resizable=0;points=[];autosize=1;strokeColor=none;fillColor=none;" parent="1" vertex="1">
          <mxGeometry x="3406" y="2950" width="190" height="80" as="geometry" />
        </mxCell>
        <mxCell id="6C7twjUIRTZ6ljj86NKA-7" value="&lt;font style=&quot;font-size: 14px;&quot; face=&quot;Verdana&quot;&gt;PRODUCT CARD&lt;/font&gt;" style="text;html=1;align=center;verticalAlign=middle;resizable=0;points=[];autosize=1;strokeColor=none;fillColor=none;" parent="1" vertex="1">
          <mxGeometry x="3423" y="3090" width="140" height="30" as="geometry" />
        </mxCell>
        <mxCell id="6C7twjUIRTZ6ljj86NKA-9" value="" style="rounded=1;whiteSpace=wrap;html=1;fillColor=#1ba1e2;fontColor=#ffffff;strokeColor=#006EAF;" parent="1" vertex="1">
          <mxGeometry x="3436" y="3040" width="114" height="30" as="geometry" />
        </mxCell>
        <mxCell id="6C7twjUIRTZ6ljj86NKA-10" value="&lt;font style=&quot;font-size: 14px;&quot; face=&quot;Verdana&quot;&gt;View Details&lt;/font&gt;" style="text;html=1;align=center;verticalAlign=middle;resizable=0;points=[];autosize=1;fillColor=none;fontColor=#FFFFFF;" parent="1" vertex="1">
          <mxGeometry x="3438" y="3040" width="110" height="30" as="geometry" />
        </mxCell>
        <mxCell id="6C7twjUIRTZ6ljj86NKA-12" value="&lt;font style=&quot;font-size: 14px;&quot; face=&quot;Verdana&quot;&gt;Product Image...&lt;/font&gt;" style="text;html=1;align=center;verticalAlign=middle;resizable=0;points=[];autosize=1;strokeColor=none;fillColor=none;" parent="1" vertex="1">
          <mxGeometry x="3423" y="2875" width="140" height="30" as="geometry" />
        </mxCell>
        <mxCell id="6C7twjUIRTZ6ljj86NKA-13" value="" style="rounded=1;whiteSpace=wrap;html=1;" parent="1" vertex="1">
          <mxGeometry x="2852" y="2825" width="420" height="257.5" as="geometry" />
        </mxCell>
        <mxCell id="6C7twjUIRTZ6ljj86NKA-14" value="&lt;font style=&quot;font-size: 14px;&quot; face=&quot;Verdana&quot;&gt;PRODUCT DETAILS PAGE&lt;/font&gt;" style="text;html=1;align=center;verticalAlign=middle;resizable=0;points=[];autosize=1;strokeColor=none;fillColor=none;" parent="1" vertex="1">
          <mxGeometry x="2962" y="2780" width="200" height="30" as="geometry" />
        </mxCell>
        <mxCell id="6C7twjUIRTZ6ljj86NKA-15" value="" style="rounded=1;whiteSpace=wrap;html=1;arcSize=7;gradientColor=none;fillColor=default;" parent="1" vertex="1">
          <mxGeometry x="2882" y="2850" width="174" height="100" as="geometry" />
        </mxCell>
        <mxCell id="6C7twjUIRTZ6ljj86NKA-17" value="" style="rounded=1;whiteSpace=wrap;html=1;arcSize=7;gradientColor=none;fillColor=default;" parent="1" vertex="1">
          <mxGeometry x="2882" y="2965" width="70" height="40" as="geometry" />
        </mxCell>
        <mxCell id="6C7twjUIRTZ6ljj86NKA-18" value="" style="rounded=1;whiteSpace=wrap;html=1;arcSize=7;gradientColor=none;fillColor=default;" parent="1" vertex="1">
          <mxGeometry x="2986" y="2965" width="70" height="40" as="geometry" />
        </mxCell>
        <mxCell id="6C7twjUIRTZ6ljj86NKA-19" value="&lt;font face=&quot;Verdana&quot;&gt;&lt;span style=&quot;font-size: 14px;&quot;&gt;&lt;b&gt;Product Name&lt;/b&gt;&lt;/span&gt;&lt;/font&gt;" style="text;html=1;align=center;verticalAlign=middle;resizable=0;points=[];autosize=1;strokeColor=none;fillColor=none;" parent="1" vertex="1">
          <mxGeometry x="2688" y="3310" width="130" height="30" as="geometry" />
        </mxCell>
        <mxCell id="6C7twjUIRTZ6ljj86NKA-21" value="&lt;font style=&quot;font-size: 14px;&quot; face=&quot;Verdana&quot;&gt;Product Description...&lt;/font&gt;" style="text;html=1;align=center;verticalAlign=middle;resizable=0;points=[];autosize=1;strokeColor=none;fillColor=none;" parent="1" vertex="1">
          <mxGeometry x="3082" y="2940" width="180" height="30" as="geometry" />
        </mxCell>
        <mxCell id="6C7twjUIRTZ6ljj86NKA-22" value="&lt;font style=&quot;font-size: 14px;&quot; face=&quot;Verdana&quot;&gt;Product Posted By&lt;/font&gt;" style="text;html=1;align=center;verticalAlign=middle;resizable=0;points=[];autosize=1;strokeColor=none;fillColor=none;" parent="1" vertex="1">
          <mxGeometry x="3092" y="2920" width="150" height="30" as="geometry" />
        </mxCell>
        <mxCell id="6C7twjUIRTZ6ljj86NKA-23" value="&lt;font style=&quot;font-size: 14px;&quot; face=&quot;Verdana&quot;&gt;Product features&lt;/font&gt;" style="text;html=1;align=center;verticalAlign=middle;resizable=0;points=[];autosize=1;strokeColor=none;fillColor=none;" parent="1" vertex="1">
          <mxGeometry x="3092" y="2880" width="140" height="30" as="geometry" />
        </mxCell>
        <mxCell id="6C7twjUIRTZ6ljj86NKA-24" value="&lt;font style=&quot;font-size: 14px;&quot; face=&quot;Verdana&quot;&gt;Price&lt;/font&gt;" style="text;html=1;align=center;verticalAlign=middle;resizable=0;points=[];autosize=1;strokeColor=none;fillColor=none;" parent="1" vertex="1">
          <mxGeometry x="3132" y="2900" width="60" height="30" as="geometry" />
        </mxCell>
        <mxCell id="6C7twjUIRTZ6ljj86NKA-25" value="&lt;font style=&quot;font-size: 14px;&quot; face=&quot;Verdana&quot;&gt;User Rating&lt;/font&gt;" style="text;html=1;align=center;verticalAlign=middle;resizable=0;points=[];autosize=1;strokeColor=none;fillColor=none;" parent="1" vertex="1">
          <mxGeometry x="3117" y="2960" width="110" height="30" as="geometry" />
        </mxCell>
        <mxCell id="6C7twjUIRTZ6ljj86NKA-29" value="" style="rounded=1;whiteSpace=wrap;html=1;fillColor=#1ba1e2;fontColor=#ffffff;strokeColor=#006EAF;" parent="1" vertex="1">
          <mxGeometry x="2916" y="3030" width="76" height="35" as="geometry" />
        </mxCell>
        <mxCell id="6C7twjUIRTZ6ljj86NKA-30" value="" style="rounded=1;whiteSpace=wrap;html=1;fillColor=#1ba1e2;fontColor=#ffffff;strokeColor=#006EAF;" parent="1" vertex="1">
          <mxGeometry x="3122" y="3030" width="120" height="35" as="geometry" />
        </mxCell>
        <mxCell id="6C7twjUIRTZ6ljj86NKA-78" style="edgeStyle=orthogonalEdgeStyle;rounded=0;orthogonalLoop=1;jettySize=auto;html=1;" parent="1" source="6C7twjUIRTZ6ljj86NKA-31" target="6C7twjUIRTZ6ljj86NKA-35" edge="1">
          <mxGeometry relative="1" as="geometry" />
        </mxCell>
        <mxCell id="6C7twjUIRTZ6ljj86NKA-31" value="&lt;font face=&quot;Verdana&quot;&gt;&lt;span style=&quot;font-size: 14px;&quot;&gt;Contact Owner&lt;/span&gt;&lt;/font&gt;" style="text;html=1;align=center;verticalAlign=middle;resizable=0;points=[];autosize=1;fillColor=none;fontColor=#FFFFFF;" parent="1" vertex="1">
          <mxGeometry x="3117" y="3032.5" width="130" height="30" as="geometry" />
        </mxCell>
        <mxCell id="6C7twjUIRTZ6ljj86NKA-35" value="" style="rounded=1;whiteSpace=wrap;html=1;arcSize=5;" parent="1" vertex="1">
          <mxGeometry x="3143.69" y="3150" width="416.31" height="470" as="geometry" />
        </mxCell>
        <mxCell id="6C7twjUIRTZ6ljj86NKA-43" value="&lt;font style=&quot;font-size: 14px;&quot; face=&quot;Verdana&quot;&gt;Notification Should be &lt;br&gt;send to owner to accept&lt;br&gt;or reject request&lt;br&gt;&lt;/font&gt;" style="text;html=1;align=center;verticalAlign=middle;resizable=0;points=[];autosize=1;strokeColor=none;fillColor=none;" parent="1" vertex="1">
          <mxGeometry x="3242" y="3690" width="190" height="60" as="geometry" />
        </mxCell>
        <mxCell id="nLOa7aUXmN414oC4y6V_-1" style="edgeStyle=orthogonalEdgeStyle;rounded=0;orthogonalLoop=1;jettySize=auto;html=1;" parent="1" source="6C7twjUIRTZ6ljj86NKA-44" edge="1">
          <mxGeometry relative="1" as="geometry">
            <mxPoint x="2954" y="3150" as="targetPoint" />
          </mxGeometry>
        </mxCell>
        <mxCell id="6C7twjUIRTZ6ljj86NKA-44" value="&lt;font style=&quot;font-size: 14px;&quot; face=&quot;Verdana&quot;&gt;WishList&lt;/font&gt;" style="text;html=1;align=center;verticalAlign=middle;resizable=0;points=[];autosize=1;fillColor=none;fontColor=#FFFFFF;" parent="1" vertex="1">
          <mxGeometry x="2914" y="3032.5" width="80" height="30" as="geometry" />
        </mxCell>
        <mxCell id="6C7twjUIRTZ6ljj86NKA-67" value="" style="rounded=1;whiteSpace=wrap;html=1;arcSize=3;" parent="1" vertex="1">
          <mxGeometry x="3186.35" y="3390" width="320" height="170" as="geometry" />
        </mxCell>
        <mxCell id="6C7twjUIRTZ6ljj86NKA-69" value="" style="rounded=1;whiteSpace=wrap;html=1;arcSize=3;" parent="1" vertex="1">
          <mxGeometry x="3186.35" y="3530" width="320" height="30" as="geometry" />
        </mxCell>
        <mxCell id="6C7twjUIRTZ6ljj86NKA-70" value="" style="ellipse;whiteSpace=wrap;html=1;fillColor=#60a917;fontColor=#ffffff;strokeColor=#2D7600;" parent="1" vertex="1">
          <mxGeometry x="3478.0000000000005" y="3535" width="20" height="20" as="geometry" />
        </mxCell>
        <mxCell id="6C7twjUIRTZ6ljj86NKA-71" value="&lt;font style=&quot;font-size: 14px;&quot; face=&quot;Verdana&quot;&gt;Write Message..&lt;/font&gt;" style="text;html=1;align=center;verticalAlign=middle;resizable=0;points=[];autosize=1;strokeColor=none;fillColor=none;" parent="1" vertex="1">
          <mxGeometry x="3188.35" y="3530" width="140" height="30" as="geometry" />
        </mxCell>
        <mxCell id="6C7twjUIRTZ6ljj86NKA-75" value="" style="ellipse;whiteSpace=wrap;html=1;fillColor=#d80073;fontColor=#ffffff;strokeColor=#A50040;" parent="1" vertex="1">
          <mxGeometry x="3166" y="3165" width="20" height="20" as="geometry" />
        </mxCell>
        <mxCell id="6C7twjUIRTZ6ljj86NKA-76" value="&lt;font face=&quot;Verdana&quot;&gt;&lt;span style=&quot;font-size: 14px;&quot;&gt;Owner Person...&lt;/span&gt;&lt;/font&gt;" style="text;html=1;align=center;verticalAlign=middle;resizable=0;points=[];autosize=1;strokeColor=none;fillColor=none;" parent="1" vertex="1">
          <mxGeometry x="3193.35" y="3160" width="140" height="30" as="geometry" />
        </mxCell>
        <mxCell id="6C7twjUIRTZ6ljj86NKA-83" value="" style="rounded=1;whiteSpace=wrap;html=1;fillColor=#1ba1e2;fontColor=#ffffff;strokeColor=#006EAF;" parent="1" vertex="1">
          <mxGeometry x="3697" y="3150" width="120" height="35" as="geometry" />
        </mxCell>
        <mxCell id="6C7twjUIRTZ6ljj86NKA-84" value="&lt;font face=&quot;Verdana&quot;&gt;&lt;span style=&quot;font-size: 14px;&quot;&gt;Contact Owner&lt;/span&gt;&lt;/font&gt;" style="text;html=1;align=center;verticalAlign=middle;resizable=0;points=[];autosize=1;fillColor=none;fontColor=#FFFFFF;" parent="1" vertex="1">
          <mxGeometry x="3692" y="3152.5" width="130" height="30" as="geometry" />
        </mxCell>
        <mxCell id="6C7twjUIRTZ6ljj86NKA-85" value="" style="rounded=1;whiteSpace=wrap;html=1;fillColor=#1ba1e2;fontColor=#ffffff;strokeColor=#006EAF;" parent="1" vertex="1">
          <mxGeometry x="3285.8499999999995" y="3575" width="120" height="35" as="geometry" />
        </mxCell>
        <mxCell id="6C7twjUIRTZ6ljj86NKA-86" value="&lt;font face=&quot;Verdana&quot;&gt;&lt;span style=&quot;font-size: 14px;&quot;&gt;Swap(By Own.)&lt;/span&gt;&lt;/font&gt;" style="text;html=1;align=center;verticalAlign=middle;resizable=0;points=[];autosize=1;fillColor=none;fontColor=#FFFFFF;" parent="1" vertex="1">
          <mxGeometry x="3281.35" y="3577.5" width="130" height="30" as="geometry" />
        </mxCell>
        <mxCell id="9mO5QCYeTI0Gu5PxBRXs-3" value="&lt;font style=&quot;font-size: 14px;&quot; face=&quot;Verdana&quot;&gt;On Click&lt;/font&gt;" style="text;html=1;align=center;verticalAlign=middle;resizable=0;points=[];autosize=1;strokeColor=none;fillColor=none;" parent="1" vertex="1">
          <mxGeometry x="3298.35" y="2860" width="80" height="30" as="geometry" />
        </mxCell>
        <mxCell id="9mO5QCYeTI0Gu5PxBRXs-4" value="&lt;font style=&quot;font-size: 14px;&quot; face=&quot;Verdana&quot;&gt;On Click&lt;/font&gt;" style="text;html=1;align=center;verticalAlign=middle;resizable=0;points=[];autosize=1;strokeColor=none;fillColor=none;" parent="1" vertex="1">
          <mxGeometry x="3182" y="3100" width="80" height="30" as="geometry" />
        </mxCell>
        <mxCell id="nLOa7aUXmN414oC4y6V_-2" value="&lt;font style=&quot;font-size: 14px;&quot; face=&quot;Verdana&quot;&gt;Product will be added&amp;nbsp;&lt;br&gt;to wishlist&lt;br&gt;&lt;/font&gt;" style="text;html=1;align=center;verticalAlign=middle;resizable=0;points=[];autosize=1;strokeColor=none;fillColor=none;" parent="1" vertex="1">
          <mxGeometry x="2864" y="3155" width="180" height="50" as="geometry" />
        </mxCell>
        <mxCell id="nLOa7aUXmN414oC4y6V_-3" value="&lt;font style=&quot;font-size: 14px;&quot; face=&quot;Verdana&quot;&gt;on click&lt;br&gt;&lt;/font&gt;" style="text;html=1;align=center;verticalAlign=middle;resizable=0;points=[];autosize=1;strokeColor=none;fillColor=none;" parent="1" vertex="1">
          <mxGeometry x="2952" y="3100" width="80" height="30" as="geometry" />
        </mxCell>
        <mxCell id="nLOa7aUXmN414oC4y6V_-4" value="" style="rounded=1;whiteSpace=wrap;html=1;arcSize=2;" parent="1" vertex="1">
          <mxGeometry x="2636" y="3250" width="384" height="410" as="geometry" />
        </mxCell>
        <mxCell id="nLOa7aUXmN414oC4y6V_-5" value="&lt;font style=&quot;font-size: 14px;&quot; face=&quot;Verdana&quot;&gt;&lt;b&gt;WISH LIST&lt;/b&gt;&lt;br&gt;&lt;/font&gt;" style="text;html=1;align=center;verticalAlign=middle;resizable=0;points=[];autosize=1;strokeColor=none;fillColor=none;" parent="1" vertex="1">
          <mxGeometry x="2770.5" y="3265" width="110" height="30" as="geometry" />
        </mxCell>
        <mxCell id="nLOa7aUXmN414oC4y6V_-21" style="edgeStyle=orthogonalEdgeStyle;rounded=0;orthogonalLoop=1;jettySize=auto;html=1;exitX=0.25;exitY=0;exitDx=0;exitDy=0;entryX=0;entryY=0.75;entryDx=0;entryDy=0;" parent="1" source="nLOa7aUXmN414oC4y6V_-6" target="6C7twjUIRTZ6ljj86NKA-13" edge="1">
          <mxGeometry relative="1" as="geometry">
            <Array as="points">
              <mxPoint x="2780" y="3310" />
              <mxPoint x="2780" y="3018" />
            </Array>
          </mxGeometry>
        </mxCell>
        <mxCell id="nLOa7aUXmN414oC4y6V_-6" value="" style="rounded=1;whiteSpace=wrap;html=1;arcSize=19;" parent="1" vertex="1">
          <mxGeometry x="2651" y="3310" width="349" height="50" as="geometry" />
        </mxCell>
        <mxCell id="nLOa7aUXmN414oC4y6V_-7" value="" style="ellipse;whiteSpace=wrap;html=1;fillColor=#e51400;fontColor=#ffffff;strokeColor=#B20000;" parent="1" vertex="1">
          <mxGeometry x="2668" y="3320" width="30" height="30" as="geometry" />
        </mxCell>
        <mxCell id="nLOa7aUXmN414oC4y6V_-8" value="&lt;font face=&quot;Verdana&quot;&gt;&lt;span style=&quot;font-size: 14px;&quot;&gt;Product Name&lt;/span&gt;&lt;/font&gt;" style="text;html=1;align=center;verticalAlign=middle;resizable=0;points=[];autosize=1;strokeColor=none;fillColor=none;" parent="1" vertex="1">
          <mxGeometry x="2717" y="3320" width="120" height="30" as="geometry" />
        </mxCell>
        <mxCell id="nLOa7aUXmN414oC4y6V_-10" style="edgeStyle=orthogonalEdgeStyle;rounded=0;orthogonalLoop=1;jettySize=auto;html=1;" parent="1" source="nLOa7aUXmN414oC4y6V_-9" edge="1">
          <mxGeometry relative="1" as="geometry">
            <mxPoint x="3090" y="3550" as="targetPoint" />
          </mxGeometry>
        </mxCell>
        <mxCell id="nLOa7aUXmN414oC4y6V_-9" value="" style="shape=mxgraph.mockup.markup.redX;fillColor=#ff0000;html=1;shadow=0;whiteSpace=wrap;strokeColor=none;" parent="1" vertex="1">
          <mxGeometry x="2966" y="3325" width="20" height="20" as="geometry" />
        </mxCell>
        <mxCell id="nLOa7aUXmN414oC4y6V_-11" value="&lt;font style=&quot;font-size: 14px;&quot; face=&quot;Verdana&quot;&gt;Remove Product&lt;br&gt;&amp;nbsp;from wishlist&lt;br&gt;&lt;/font&gt;" style="text;html=1;align=center;verticalAlign=middle;resizable=0;points=[];autosize=1;strokeColor=none;fillColor=none;" parent="1" vertex="1">
          <mxGeometry x="3010.35" y="3550" width="140" height="50" as="geometry" />
        </mxCell>
        <mxCell id="nLOa7aUXmN414oC4y6V_-12" value="" style="rounded=1;whiteSpace=wrap;html=1;arcSize=19;" parent="1" vertex="1">
          <mxGeometry x="2651" y="3370" width="349" height="50" as="geometry" />
        </mxCell>
        <mxCell id="nLOa7aUXmN414oC4y6V_-13" value="" style="ellipse;whiteSpace=wrap;html=1;fillColor=#e3c800;fontColor=#000000;strokeColor=#B09500;" parent="1" vertex="1">
          <mxGeometry x="2668" y="3380" width="30" height="30" as="geometry" />
        </mxCell>
        <mxCell id="nLOa7aUXmN414oC4y6V_-14" value="&lt;font face=&quot;Verdana&quot;&gt;&lt;span style=&quot;font-size: 14px;&quot;&gt;Product Name&lt;/span&gt;&lt;/font&gt;" style="text;html=1;align=center;verticalAlign=middle;resizable=0;points=[];autosize=1;strokeColor=none;fillColor=none;" parent="1" vertex="1">
          <mxGeometry x="2717" y="3380" width="120" height="30" as="geometry" />
        </mxCell>
        <mxCell id="nLOa7aUXmN414oC4y6V_-15" value="" style="shape=mxgraph.mockup.markup.redX;fillColor=#ff0000;html=1;shadow=0;whiteSpace=wrap;strokeColor=none;" parent="1" vertex="1">
          <mxGeometry x="2966" y="3385" width="20" height="20" as="geometry" />
        </mxCell>
        <mxCell id="nLOa7aUXmN414oC4y6V_-16" value="" style="rounded=1;whiteSpace=wrap;html=1;arcSize=19;" parent="1" vertex="1">
          <mxGeometry x="2651" y="3430" width="349" height="50" as="geometry" />
        </mxCell>
        <mxCell id="nLOa7aUXmN414oC4y6V_-17" value="" style="ellipse;whiteSpace=wrap;html=1;fillColor=#647687;fontColor=#ffffff;strokeColor=#314354;" parent="1" vertex="1">
          <mxGeometry x="2668" y="3440" width="30" height="30" as="geometry" />
        </mxCell>
        <mxCell id="nLOa7aUXmN414oC4y6V_-18" value="&lt;font face=&quot;Verdana&quot;&gt;&lt;span style=&quot;font-size: 14px;&quot;&gt;Product Name&lt;/span&gt;&lt;/font&gt;" style="text;html=1;align=center;verticalAlign=middle;resizable=0;points=[];autosize=1;strokeColor=none;fillColor=none;" parent="1" vertex="1">
          <mxGeometry x="2717" y="3440" width="120" height="30" as="geometry" />
        </mxCell>
        <mxCell id="nLOa7aUXmN414oC4y6V_-19" value="" style="shape=mxgraph.mockup.markup.redX;fillColor=#ff0000;html=1;shadow=0;whiteSpace=wrap;strokeColor=none;" parent="1" vertex="1">
          <mxGeometry x="2966" y="3445" width="20" height="20" as="geometry" />
        </mxCell>
        <mxCell id="nLOa7aUXmN414oC4y6V_-22" value="&lt;font style=&quot;font-size: 14px;&quot; face=&quot;Verdana&quot;&gt;On Click, redirect&amp;nbsp;&lt;br&gt;to detail page&lt;br&gt;&lt;/font&gt;" style="text;html=1;align=center;verticalAlign=middle;resizable=0;points=[];autosize=1;strokeColor=none;fillColor=none;" parent="1" vertex="1">
          <mxGeometry x="2627" y="3150" width="150" height="50" as="geometry" />
        </mxCell>
        <mxCell id="nLOa7aUXmN414oC4y6V_-23" value="" style="rounded=1;whiteSpace=wrap;html=1;fillColor=#1ba1e2;fontColor=#ffffff;strokeColor=#006EAF;" parent="1" vertex="1">
          <mxGeometry x="2755.5" y="3610" width="120" height="35" as="geometry" />
        </mxCell>
        <mxCell id="nLOa7aUXmN414oC4y6V_-24" value="&lt;font face=&quot;Verdana&quot;&gt;&lt;span style=&quot;font-size: 14px;&quot;&gt;Clear All&lt;/span&gt;&lt;/font&gt;" style="text;html=1;align=center;verticalAlign=middle;resizable=0;points=[];autosize=1;fillColor=none;fontColor=#FFFFFF;" parent="1" vertex="1">
          <mxGeometry x="2775.5" y="3612.5" width="80" height="30" as="geometry" />
        </mxCell>
        <mxCell id="nLOa7aUXmN414oC4y6V_-26" value="" style="rounded=0;whiteSpace=wrap;html=1;" parent="1" vertex="1">
          <mxGeometry x="2272" y="2645" width="490" height="145" as="geometry" />
        </mxCell>
        <mxCell id="nLOa7aUXmN414oC4y6V_-27" value="" style="rounded=0;whiteSpace=wrap;html=1;" parent="1" vertex="1">
          <mxGeometry x="2272" y="2965" width="490" height="100" as="geometry" />
        </mxCell>
        <mxCell id="nLOa7aUXmN414oC4y6V_-28" value="&lt;font style=&quot;font-size: 14px;&quot; face=&quot;Verdana&quot;&gt;WELCOME PAGE...&lt;/font&gt;" style="text;html=1;align=center;verticalAlign=middle;resizable=0;points=[];autosize=1;strokeColor=none;fillColor=none;" parent="1" vertex="1">
          <mxGeometry x="2442" y="2694" width="150" height="30" as="geometry" />
        </mxCell>
        <mxCell id="nLOa7aUXmN414oC4y6V_-29" value="&lt;font face=&quot;Verdana&quot;&gt;&lt;span style=&quot;font-size: 14px;&quot;&gt;FOOTER...&lt;/span&gt;&lt;/font&gt;" style="text;html=1;align=center;verticalAlign=middle;resizable=0;points=[];autosize=1;strokeColor=none;fillColor=none;" parent="1" vertex="1">
          <mxGeometry x="2467" y="3000" width="100" height="30" as="geometry" />
        </mxCell>
        <mxCell id="nLOa7aUXmN414oC4y6V_-30" value="" style="rounded=1;whiteSpace=wrap;html=1;arcSize=5;" parent="1" vertex="1">
          <mxGeometry x="3411" y="2555" width="164" height="185" as="geometry" />
        </mxCell>
        <mxCell id="nLOa7aUXmN414oC4y6V_-31" value="&lt;font style=&quot;font-size: 14px;&quot; face=&quot;Verdana&quot;&gt;Filters...&lt;/font&gt;" style="text;html=1;align=center;verticalAlign=middle;resizable=0;points=[];autosize=1;strokeColor=none;fillColor=none;" parent="1" vertex="1">
          <mxGeometry x="3448" y="2560.5" width="80" height="30" as="geometry" />
        </mxCell>
        <mxCell id="nLOa7aUXmN414oC4y6V_-32" value="&lt;font style=&quot;font-size: 14px;&quot; face=&quot;Verdana&quot;&gt;PRODUCT LIST BASED ON CATEGORY&lt;/font&gt;" style="text;html=1;align=center;verticalAlign=middle;resizable=0;points=[];autosize=1;strokeColor=none;fillColor=none;" parent="1" vertex="1">
          <mxGeometry x="3496.5" y="2440" width="290" height="30" as="geometry" />
        </mxCell>
        <mxCell id="nLOa7aUXmN414oC4y6V_-33" value="&lt;div style=&quot;text-align: left;&quot;&gt;&lt;span style=&quot;font-size: 14px; font-family: Verdana; background-color: initial;&quot;&gt;1. Price&lt;/span&gt;&lt;/div&gt;&lt;font style=&quot;font-size: 14px;&quot; face=&quot;Verdana&quot;&gt;&lt;div style=&quot;text-align: left;&quot;&gt;&lt;span style=&quot;background-color: initial;&quot;&gt;2. Brand&lt;/span&gt;&lt;/div&gt;&lt;div style=&quot;text-align: left;&quot;&gt;3. Posted Date&lt;/div&gt;&lt;div style=&quot;text-align: left;&quot;&gt;4. City&lt;/div&gt;&lt;/font&gt;" style="text;html=1;align=center;verticalAlign=middle;resizable=0;points=[];autosize=1;strokeColor=none;fillColor=none;" parent="1" vertex="1">
          <mxGeometry x="3418" y="2607.5" width="130" height="80" as="geometry" />
        </mxCell>
        <mxCell id="nLOa7aUXmN414oC4y6V_-36" style="edgeStyle=orthogonalEdgeStyle;rounded=0;orthogonalLoop=1;jettySize=auto;html=1;" parent="1" source="nLOa7aUXmN414oC4y6V_-34" edge="1">
          <mxGeometry relative="1" as="geometry">
            <mxPoint x="3960" y="2537.5" as="targetPoint" />
          </mxGeometry>
        </mxCell>
        <mxCell id="nLOa7aUXmN414oC4y6V_-34" value="" style="rounded=1;whiteSpace=wrap;html=1;arcSize=25;" parent="1" vertex="1">
          <mxGeometry x="3702" y="2520" width="164" height="35" as="geometry" />
        </mxCell>
        <mxCell id="nLOa7aUXmN414oC4y6V_-35" value="&lt;font style=&quot;font-size: 14px;&quot; face=&quot;Verdana&quot;&gt;Search...&lt;/font&gt;" style="text;html=1;align=center;verticalAlign=middle;resizable=0;points=[];autosize=1;strokeColor=none;fillColor=none;" parent="1" vertex="1">
          <mxGeometry x="3702" y="2522.5" width="90" height="30" as="geometry" />
        </mxCell>
        <mxCell id="nLOa7aUXmN414oC4y6V_-37" value="&lt;font style=&quot;font-size: 14px;&quot; face=&quot;Verdana&quot;&gt;Search by Product Name&amp;nbsp;&lt;/font&gt;" style="text;html=1;align=center;verticalAlign=middle;resizable=0;points=[];autosize=1;strokeColor=none;fillColor=none;" parent="1" vertex="1">
          <mxGeometry x="3970" y="2520" width="200" height="30" as="geometry" />
        </mxCell>
        <mxCell id="nLOa7aUXmN414oC4y6V_-39" value="" style="ellipse;whiteSpace=wrap;html=1;fillColor=#d5e8d4;gradientColor=#97d077;strokeColor=#82b366;" parent="1" vertex="1">
          <mxGeometry x="1547.5" y="1897.5" width="30" height="30" as="geometry" />
        </mxCell>
        <mxCell id="nLOa7aUXmN414oC4y6V_-52" style="edgeStyle=orthogonalEdgeStyle;rounded=0;orthogonalLoop=1;jettySize=auto;html=1;exitX=1;exitY=0.75;exitDx=0;exitDy=0;entryX=1;entryY=0.75;entryDx=0;entryDy=0;" parent="1" source="nLOa7aUXmN414oC4y6V_-43" target="nLOa7aUXmN414oC4y6V_-48" edge="1">
          <mxGeometry relative="1" as="geometry" />
        </mxCell>
        <mxCell id="nLOa7aUXmN414oC4y6V_-43" value="" style="rounded=1;whiteSpace=wrap;html=1;" parent="1" vertex="1">
          <mxGeometry x="1535.5" y="1897.5" width="200" height="40" as="geometry" />
        </mxCell>
        <mxCell id="nLOa7aUXmN414oC4y6V_-45" value="&lt;font style=&quot;font-size: 14px;&quot; face=&quot;Verdana&quot;&gt;First Name&lt;/font&gt;" style="text;html=1;align=center;verticalAlign=middle;resizable=0;points=[];autosize=1;strokeColor=none;fillColor=none;" parent="1" vertex="1">
          <mxGeometry x="1577.5" y="1902.5" width="100" height="30" as="geometry" />
        </mxCell>
        <mxCell id="nLOa7aUXmN414oC4y6V_-46" value="" style="shape=image;html=1;verticalAlign=top;verticalLabelPosition=bottom;labelBackgroundColor=#ffffff;imageAspect=0;aspect=fixed;image=https://cdn1.iconfinder.com/data/icons/material-core/10/arrow-drop-down-128.png" parent="1" vertex="1">
          <mxGeometry x="1705.5" y="1907.5" width="20" height="20" as="geometry" />
        </mxCell>
        <mxCell id="nLOa7aUXmN414oC4y6V_-47" value="" style="rounded=1;whiteSpace=wrap;html=1;arcSize=0;" parent="1" vertex="1">
          <mxGeometry x="1535.5" y="1937.5" width="200" height="120" as="geometry" />
        </mxCell>
        <mxCell id="nLOa7aUXmN414oC4y6V_-48" value="" style="rounded=1;whiteSpace=wrap;html=1;arcSize=0;" parent="1" vertex="1">
          <mxGeometry x="1535.5" y="1937.5" width="200" height="40" as="geometry" />
        </mxCell>
        <mxCell id="nLOa7aUXmN414oC4y6V_-93" style="edgeStyle=orthogonalEdgeStyle;rounded=0;orthogonalLoop=1;jettySize=auto;html=1;exitX=1;exitY=0.5;exitDx=0;exitDy=0;entryX=0;entryY=0.25;entryDx=0;entryDy=0;" parent="1" source="nLOa7aUXmN414oC4y6V_-49" target="nLOa7aUXmN414oC4y6V_-92" edge="1">
          <mxGeometry relative="1" as="geometry" />
        </mxCell>
        <mxCell id="nLOa7aUXmN414oC4y6V_-49" value="" style="rounded=1;whiteSpace=wrap;html=1;arcSize=0;" parent="1" vertex="1">
          <mxGeometry x="1535.5" y="1977.5" width="200" height="40" as="geometry" />
        </mxCell>
        <mxCell id="nLOa7aUXmN414oC4y6V_-50" value="" style="rounded=1;whiteSpace=wrap;html=1;arcSize=0;" parent="1" vertex="1">
          <mxGeometry x="1535.5" y="2057.5" width="200" height="40" as="geometry" />
        </mxCell>
        <mxCell id="nLOa7aUXmN414oC4y6V_-151" style="edgeStyle=orthogonalEdgeStyle;rounded=0;orthogonalLoop=1;jettySize=auto;html=1;" parent="1" source="nLOa7aUXmN414oC4y6V_-51" edge="1">
          <mxGeometry relative="1" as="geometry">
            <mxPoint x="1435.5000000000005" y="2077.5" as="targetPoint" />
          </mxGeometry>
        </mxCell>
        <mxCell id="nLOa7aUXmN414oC4y6V_-51" value="&lt;font style=&quot;font-size: 14px;&quot; face=&quot;Verdana&quot;&gt;Log Out&lt;/font&gt;" style="text;html=1;align=center;verticalAlign=middle;resizable=0;points=[];autosize=1;strokeColor=none;fillColor=none;" parent="1" vertex="1">
          <mxGeometry x="1542.5" y="2062.5" width="80" height="30" as="geometry" />
        </mxCell>
        <mxCell id="nLOa7aUXmN414oC4y6V_-53" value="&lt;font style=&quot;font-size: 14px;&quot; face=&quot;Verdana&quot;&gt;On Click&amp;nbsp;&lt;/font&gt;" style="text;html=1;align=center;verticalAlign=middle;resizable=0;points=[];autosize=1;strokeColor=none;fillColor=none;" parent="1" vertex="1">
          <mxGeometry x="1752.5" y="1932.5" width="90" height="30" as="geometry" />
        </mxCell>
        <mxCell id="nLOa7aUXmN414oC4y6V_-54" value="&lt;font style=&quot;font-size: 14px;&quot; face=&quot;Verdana&quot;&gt;Account Setting&lt;/font&gt;" style="text;html=1;align=center;verticalAlign=middle;resizable=0;points=[];autosize=1;strokeColor=none;fillColor=none;" parent="1" vertex="1">
          <mxGeometry x="1542.5" y="1942.5" width="130" height="30" as="geometry" />
        </mxCell>
        <mxCell id="nLOa7aUXmN414oC4y6V_-55" value="&lt;font style=&quot;font-size: 14px;&quot; face=&quot;Verdana&quot;&gt;Your Products&lt;/font&gt;" style="text;html=1;align=center;verticalAlign=middle;resizable=0;points=[];autosize=1;strokeColor=none;fillColor=none;" parent="1" vertex="1">
          <mxGeometry x="1537.5" y="1982.5" width="120" height="30" as="geometry" />
        </mxCell>
        <mxCell id="nLOa7aUXmN414oC4y6V_-56" value="&lt;font style=&quot;font-size: 14px;&quot; face=&quot;Verdana&quot;&gt;Search...&lt;/font&gt;" style="text;html=1;align=center;verticalAlign=middle;resizable=0;points=[];autosize=1;strokeColor=none;fillColor=none;" parent="1" vertex="1">
          <mxGeometry x="2402" y="2555" width="90" height="30" as="geometry" />
        </mxCell>
        <mxCell id="nLOa7aUXmN414oC4y6V_-57" value="" style="rounded=1;whiteSpace=wrap;html=1;arcSize=4;" parent="1" vertex="1">
          <mxGeometry x="1025.5" y="1627.5" width="390" height="390" as="geometry" />
        </mxCell>
        <mxCell id="nLOa7aUXmN414oC4y6V_-58" value="&lt;font style=&quot;font-size: 14px;&quot; face=&quot;Verdana&quot;&gt;&lt;b&gt;ACCOUNT SETTING&lt;/b&gt;&lt;/font&gt;" style="text;html=1;align=center;verticalAlign=middle;resizable=0;points=[];autosize=1;strokeColor=none;fillColor=none;" parent="1" vertex="1">
          <mxGeometry x="1135.5" y="1637.5" width="170" height="30" as="geometry" />
        </mxCell>
        <mxCell id="nLOa7aUXmN414oC4y6V_-59" style="edgeStyle=orthogonalEdgeStyle;rounded=0;orthogonalLoop=1;jettySize=auto;html=1;entryX=1.005;entryY=0.121;entryDx=0;entryDy=0;entryPerimeter=0;" parent="1" source="JUd5yHKMKR-s4hX0yN-B-11" target="nLOa7aUXmN414oC4y6V_-57" edge="1">
          <mxGeometry relative="1" as="geometry" />
        </mxCell>
        <mxCell id="nLOa7aUXmN414oC4y6V_-61" value="" style="html=1;verticalLabelPosition=bottom;align=center;labelBackgroundColor=#ffffff;verticalAlign=top;strokeWidth=2;strokeColor=#0080F0;shadow=0;dashed=0;shape=mxgraph.ios7.icons.user;" parent="1" vertex="1">
          <mxGeometry x="1050.5" y="1687.5" width="90" height="90" as="geometry" />
        </mxCell>
        <mxCell id="nLOa7aUXmN414oC4y6V_-62" value="" style="html=1;verticalLabelPosition=bottom;align=center;labelBackgroundColor=#ffffff;verticalAlign=top;strokeWidth=2;strokeColor=#0080F0;shadow=0;dashed=0;shape=mxgraph.ios7.icons.user;" parent="1" vertex="1">
          <mxGeometry x="1545.5" y="1902.5" width="30" height="30" as="geometry" />
        </mxCell>
        <mxCell id="nLOa7aUXmN414oC4y6V_-63" value="&lt;font style=&quot;font-size: 14px;&quot; face=&quot;Verdana&quot;&gt;First Name&lt;/font&gt;" style="text;html=1;align=center;verticalAlign=middle;resizable=0;points=[];autosize=1;strokeColor=none;fillColor=none;" parent="1" vertex="1">
          <mxGeometry x="1170.5" y="1687.5" width="100" height="30" as="geometry" />
        </mxCell>
        <mxCell id="nLOa7aUXmN414oC4y6V_-64" value="&lt;font style=&quot;font-size: 14px;&quot; face=&quot;Verdana&quot;&gt;Email&lt;/font&gt;" style="text;html=1;align=center;verticalAlign=middle;resizable=0;points=[];autosize=1;strokeColor=none;fillColor=none;" parent="1" vertex="1">
          <mxGeometry x="1170.5" y="1717.5" width="60" height="30" as="geometry" />
        </mxCell>
        <mxCell id="nLOa7aUXmN414oC4y6V_-65" value="&lt;font style=&quot;font-size: 14px;&quot; face=&quot;Verdana&quot;&gt;Phone No&lt;/font&gt;" style="text;html=1;align=center;verticalAlign=middle;resizable=0;points=[];autosize=1;strokeColor=none;fillColor=none;" parent="1" vertex="1">
          <mxGeometry x="1170.5" y="1747.5" width="90" height="30" as="geometry" />
        </mxCell>
        <mxCell id="nLOa7aUXmN414oC4y6V_-66" value="&lt;font style=&quot;font-size: 14px;&quot; face=&quot;Verdana&quot;&gt;City&lt;/font&gt;" style="text;html=1;align=center;verticalAlign=middle;resizable=0;points=[];autosize=1;strokeColor=none;fillColor=none;" parent="1" vertex="1">
          <mxGeometry x="1170.5" y="1777.5" width="50" height="30" as="geometry" />
        </mxCell>
        <mxCell id="nLOa7aUXmN414oC4y6V_-71" style="edgeStyle=orthogonalEdgeStyle;rounded=0;orthogonalLoop=1;jettySize=auto;html=1;exitX=0;exitY=0.5;exitDx=0;exitDy=0;entryX=1;entryY=0.5;entryDx=0;entryDy=0;" parent="1" source="nLOa7aUXmN414oC4y6V_-67" target="nLOa7aUXmN414oC4y6V_-70" edge="1">
          <mxGeometry relative="1" as="geometry" />
        </mxCell>
        <mxCell id="nLOa7aUXmN414oC4y6V_-67" value="" style="rounded=1;whiteSpace=wrap;html=1;fillColor=#1ba1e2;fontColor=#ffffff;strokeColor=#006EAF;" parent="1" vertex="1">
          <mxGeometry x="1045.5" y="1962.5" width="120" height="35" as="geometry" />
        </mxCell>
        <mxCell id="nLOa7aUXmN414oC4y6V_-68" value="&lt;font face=&quot;Verdana&quot;&gt;&lt;span style=&quot;font-size: 14px;&quot;&gt;Edit Profile&lt;/span&gt;&lt;/font&gt;" style="text;html=1;align=center;verticalAlign=middle;resizable=0;points=[];autosize=1;fillColor=none;fontColor=#FFFFFF;" parent="1" vertex="1">
          <mxGeometry x="1055.5" y="1965" width="100" height="30" as="geometry" />
        </mxCell>
        <mxCell id="nLOa7aUXmN414oC4y6V_-70" value="" style="rounded=1;whiteSpace=wrap;html=1;arcSize=5;" parent="1" vertex="1">
          <mxGeometry x="555.5" y="1672.5" width="300" height="305" as="geometry" />
        </mxCell>
        <mxCell id="nLOa7aUXmN414oC4y6V_-72" value="" style="rounded=1;whiteSpace=wrap;html=1;" parent="1" vertex="1">
          <mxGeometry x="675.5" y="1717.5" width="160" height="30" as="geometry" />
        </mxCell>
        <mxCell id="nLOa7aUXmN414oC4y6V_-73" value="" style="rounded=1;whiteSpace=wrap;html=1;" parent="1" vertex="1">
          <mxGeometry x="675.5" y="1757.5" width="160" height="30" as="geometry" />
        </mxCell>
        <mxCell id="nLOa7aUXmN414oC4y6V_-74" value="" style="rounded=1;whiteSpace=wrap;html=1;" parent="1" vertex="1">
          <mxGeometry x="675.5" y="1797.5" width="160" height="30" as="geometry" />
        </mxCell>
        <mxCell id="nLOa7aUXmN414oC4y6V_-75" value="" style="rounded=1;whiteSpace=wrap;html=1;" parent="1" vertex="1">
          <mxGeometry x="675.5" y="1837.5" width="160" height="30" as="geometry" />
        </mxCell>
        <mxCell id="nLOa7aUXmN414oC4y6V_-76" value="" style="rounded=1;whiteSpace=wrap;html=1;" parent="1" vertex="1">
          <mxGeometry x="675.5" y="1877.5" width="160" height="30" as="geometry" />
        </mxCell>
        <mxCell id="nLOa7aUXmN414oC4y6V_-77" value="" style="rounded=1;whiteSpace=wrap;html=1;fillColor=#60a917;fontColor=#ffffff;strokeColor=#2D7600;" parent="1" vertex="1">
          <mxGeometry x="705.5" y="1927.5" width="120" height="35" as="geometry" />
        </mxCell>
        <mxCell id="akrNPFHpnsv7y5JYQiHU-116" style="edgeStyle=orthogonalEdgeStyle;rounded=0;orthogonalLoop=1;jettySize=auto;html=1;" parent="1" source="nLOa7aUXmN414oC4y6V_-78" edge="1">
          <mxGeometry relative="1" as="geometry">
            <mxPoint x="765.5" y="2030" as="targetPoint" />
          </mxGeometry>
        </mxCell>
        <mxCell id="nLOa7aUXmN414oC4y6V_-78" value="&lt;font face=&quot;Verdana&quot;&gt;&lt;span style=&quot;font-size: 14px;&quot;&gt;Save Changes&lt;/span&gt;&lt;/font&gt;" style="text;html=1;align=center;verticalAlign=middle;resizable=0;points=[];autosize=1;fillColor=none;fontColor=#FFFFFF;" parent="1" vertex="1">
          <mxGeometry x="705.5" y="1930" width="120" height="30" as="geometry" />
        </mxCell>
        <mxCell id="nLOa7aUXmN414oC4y6V_-79" value="" style="rounded=1;whiteSpace=wrap;html=1;fillColor=#e51400;fontColor=#ffffff;strokeColor=#B20000;" parent="1" vertex="1">
          <mxGeometry x="575.5" y="1930" width="100" height="35" as="geometry" />
        </mxCell>
        <mxCell id="nLOa7aUXmN414oC4y6V_-80" value="&lt;font face=&quot;Verdana&quot;&gt;&lt;span style=&quot;font-size: 14px;&quot;&gt;Cancel&lt;/span&gt;&lt;/font&gt;" style="text;html=1;align=center;verticalAlign=middle;resizable=0;points=[];autosize=1;fillColor=none;fontColor=#FFFFFF;" parent="1" vertex="1">
          <mxGeometry x="590.5" y="1932.5" width="70" height="30" as="geometry" />
        </mxCell>
        <mxCell id="nLOa7aUXmN414oC4y6V_-81" value="&lt;font style=&quot;font-size: 14px;&quot; face=&quot;Verdana&quot;&gt;First Name&lt;/font&gt;" style="text;html=1;align=center;verticalAlign=middle;resizable=0;points=[];autosize=1;strokeColor=none;fillColor=none;" parent="1" vertex="1">
          <mxGeometry x="555.5" y="1717.5" width="100" height="30" as="geometry" />
        </mxCell>
        <mxCell id="nLOa7aUXmN414oC4y6V_-82" value="&lt;font style=&quot;font-size: 14px;&quot; face=&quot;Verdana&quot;&gt;Last Name&lt;/font&gt;" style="text;html=1;align=center;verticalAlign=middle;resizable=0;points=[];autosize=1;strokeColor=none;fillColor=none;" parent="1" vertex="1">
          <mxGeometry x="555.5" y="1757.5" width="100" height="30" as="geometry" />
        </mxCell>
        <mxCell id="nLOa7aUXmN414oC4y6V_-83" value="&lt;font style=&quot;font-size: 14px;&quot; face=&quot;Verdana&quot;&gt;City&lt;/font&gt;" style="text;html=1;align=center;verticalAlign=middle;resizable=0;points=[];autosize=1;strokeColor=none;fillColor=none;" parent="1" vertex="1">
          <mxGeometry x="555.5" y="1797.5" width="50" height="30" as="geometry" />
        </mxCell>
        <mxCell id="nLOa7aUXmN414oC4y6V_-84" value="&lt;font style=&quot;font-size: 14px;&quot; face=&quot;Verdana&quot;&gt;Phone No.&lt;/font&gt;" style="text;html=1;align=center;verticalAlign=middle;resizable=0;points=[];autosize=1;strokeColor=none;fillColor=none;" parent="1" vertex="1">
          <mxGeometry x="555.5" y="1837.5" width="100" height="30" as="geometry" />
        </mxCell>
        <mxCell id="nLOa7aUXmN414oC4y6V_-85" value="&lt;font style=&quot;font-size: 14px;&quot; face=&quot;Verdana&quot;&gt;Change pass.&lt;/font&gt;" style="text;html=1;align=center;verticalAlign=middle;resizable=0;points=[];autosize=1;strokeColor=none;fillColor=none;" parent="1" vertex="1">
          <mxGeometry x="555.5" y="1877.5" width="120" height="30" as="geometry" />
        </mxCell>
        <mxCell id="nLOa7aUXmN414oC4y6V_-86" value="&lt;font style=&quot;font-size: 14px;&quot; face=&quot;Verdana&quot;&gt;&lt;b&gt;EDIT PROFILE&lt;/b&gt;&lt;/font&gt;" style="text;html=1;align=center;verticalAlign=middle;resizable=0;points=[];autosize=1;strokeColor=none;fillColor=none;" parent="1" vertex="1">
          <mxGeometry x="635.5" y="1677.5" width="140" height="30" as="geometry" />
        </mxCell>
        <mxCell id="nLOa7aUXmN414oC4y6V_-87" value="" style="rounded=1;whiteSpace=wrap;html=1;fillColor=#e51400;fontColor=#ffffff;strokeColor=#B20000;" parent="1" vertex="1">
          <mxGeometry x="1255.5" y="1960" width="130" height="35" as="geometry" />
        </mxCell>
        <mxCell id="nLOa7aUXmN414oC4y6V_-88" value="&lt;font face=&quot;Verdana&quot;&gt;&lt;span style=&quot;font-size: 14px;&quot;&gt;Delete Account&lt;/span&gt;&lt;/font&gt;" style="text;html=1;align=center;verticalAlign=middle;resizable=0;points=[];autosize=1;fillColor=none;fontColor=#FFFFFF;" parent="1" vertex="1">
          <mxGeometry x="1255.5" y="1962.5" width="130" height="30" as="geometry" />
        </mxCell>
        <mxCell id="nLOa7aUXmN414oC4y6V_-149" style="edgeStyle=orthogonalEdgeStyle;rounded=0;orthogonalLoop=1;jettySize=auto;html=1;exitX=1;exitY=0.5;exitDx=0;exitDy=0;" parent="1" source="nLOa7aUXmN414oC4y6V_-89" edge="1">
          <mxGeometry relative="1" as="geometry">
            <mxPoint x="1815.5" y="2037.826086956522" as="targetPoint" />
          </mxGeometry>
        </mxCell>
        <mxCell id="nLOa7aUXmN414oC4y6V_-89" value="" style="rounded=1;whiteSpace=wrap;html=1;arcSize=0;" parent="1" vertex="1">
          <mxGeometry x="1535.5" y="2017.5" width="200" height="40" as="geometry" />
        </mxCell>
        <mxCell id="nLOa7aUXmN414oC4y6V_-90" value="&lt;font style=&quot;font-size: 14px;&quot; face=&quot;Verdana&quot;&gt;Wish List&lt;/font&gt;" style="text;html=1;align=center;verticalAlign=middle;resizable=0;points=[];autosize=1;strokeColor=none;fillColor=none;" parent="1" vertex="1">
          <mxGeometry x="1537.5" y="2022.5" width="90" height="30" as="geometry" />
        </mxCell>
        <mxCell id="nLOa7aUXmN414oC4y6V_-92" value="" style="rounded=1;whiteSpace=wrap;html=1;arcSize=4;" parent="1" vertex="1">
          <mxGeometry x="1902.5" y="1570" width="390" height="390" as="geometry" />
        </mxCell>
        <mxCell id="nLOa7aUXmN414oC4y6V_-95" value="&lt;b&gt;YOUR PRODUCTS&lt;/b&gt;" style="text;html=1;strokeColor=none;fillColor=none;align=center;verticalAlign=middle;whiteSpace=wrap;rounded=0;fontFamily=Verdana;fontSize=14;" parent="1" vertex="1">
          <mxGeometry x="2022.75" y="1577.5" width="139.5" height="30" as="geometry" />
        </mxCell>
        <mxCell id="nLOa7aUXmN414oC4y6V_-96" value="" style="rounded=1;whiteSpace=wrap;html=1;arcSize=19;" parent="1" vertex="1">
          <mxGeometry x="1923" y="1622.5" width="349" height="50" as="geometry" />
        </mxCell>
        <mxCell id="nLOa7aUXmN414oC4y6V_-97" value="" style="ellipse;whiteSpace=wrap;html=1;fillColor=#e3c800;fontColor=#000000;strokeColor=#B09500;" parent="1" vertex="1">
          <mxGeometry x="1940" y="1632.5" width="30" height="30" as="geometry" />
        </mxCell>
        <mxCell id="nLOa7aUXmN414oC4y6V_-98" value="&lt;font face=&quot;Verdana&quot;&gt;&lt;span style=&quot;font-size: 14px;&quot;&gt;Product Name&lt;/span&gt;&lt;/font&gt;" style="text;html=1;align=center;verticalAlign=middle;resizable=0;points=[];autosize=1;strokeColor=none;fillColor=none;" parent="1" vertex="1">
          <mxGeometry x="1989" y="1632.5" width="120" height="30" as="geometry" />
        </mxCell>
        <mxCell id="nLOa7aUXmN414oC4y6V_-120" style="edgeStyle=orthogonalEdgeStyle;rounded=0;orthogonalLoop=1;jettySize=auto;html=1;" parent="1" source="nLOa7aUXmN414oC4y6V_-99" edge="1">
          <mxGeometry relative="1" as="geometry">
            <mxPoint x="2345.5" y="1647.5" as="targetPoint" />
          </mxGeometry>
        </mxCell>
        <mxCell id="nLOa7aUXmN414oC4y6V_-99" value="" style="shape=mxgraph.mockup.markup.redX;fillColor=#ff0000;html=1;shadow=0;whiteSpace=wrap;strokeColor=none;" parent="1" vertex="1">
          <mxGeometry x="2238" y="1637.5" width="20" height="20" as="geometry" />
        </mxCell>
        <mxCell id="nLOa7aUXmN414oC4y6V_-112" value="" style="rounded=1;whiteSpace=wrap;html=1;arcSize=19;" parent="1" vertex="1">
          <mxGeometry x="1923" y="1687.5" width="349" height="50" as="geometry" />
        </mxCell>
        <mxCell id="nLOa7aUXmN414oC4y6V_-113" value="" style="ellipse;whiteSpace=wrap;html=1;fillColor=#6d8764;fontColor=#ffffff;strokeColor=#3A5431;" parent="1" vertex="1">
          <mxGeometry x="1940" y="1697.5" width="30" height="30" as="geometry" />
        </mxCell>
        <mxCell id="nLOa7aUXmN414oC4y6V_-114" value="&lt;font face=&quot;Verdana&quot;&gt;&lt;span style=&quot;font-size: 14px;&quot;&gt;Product Name&lt;/span&gt;&lt;/font&gt;" style="text;html=1;align=center;verticalAlign=middle;resizable=0;points=[];autosize=1;strokeColor=none;fillColor=none;" parent="1" vertex="1">
          <mxGeometry x="1989" y="1697.5" width="120" height="30" as="geometry" />
        </mxCell>
        <mxCell id="nLOa7aUXmN414oC4y6V_-115" value="" style="shape=mxgraph.mockup.markup.redX;fillColor=#ff0000;html=1;shadow=0;whiteSpace=wrap;strokeColor=none;" parent="1" vertex="1">
          <mxGeometry x="2238" y="1702.5" width="20" height="20" as="geometry" />
        </mxCell>
        <mxCell id="nLOa7aUXmN414oC4y6V_-116" value="" style="rounded=1;whiteSpace=wrap;html=1;arcSize=19;" parent="1" vertex="1">
          <mxGeometry x="1923" y="1757.5" width="349" height="50" as="geometry" />
        </mxCell>
        <mxCell id="nLOa7aUXmN414oC4y6V_-117" value="" style="ellipse;whiteSpace=wrap;html=1;fillColor=#d5e8d4;strokeColor=#82b366;gradientColor=#97d077;" parent="1" vertex="1">
          <mxGeometry x="1940" y="1767.5" width="30" height="30" as="geometry" />
        </mxCell>
        <mxCell id="nLOa7aUXmN414oC4y6V_-118" value="&lt;font face=&quot;Verdana&quot;&gt;&lt;span style=&quot;font-size: 14px;&quot;&gt;Product Name&lt;/span&gt;&lt;/font&gt;" style="text;html=1;align=center;verticalAlign=middle;resizable=0;points=[];autosize=1;strokeColor=none;fillColor=none;" parent="1" vertex="1">
          <mxGeometry x="1989" y="1767.5" width="120" height="30" as="geometry" />
        </mxCell>
        <mxCell id="nLOa7aUXmN414oC4y6V_-119" value="" style="shape=mxgraph.mockup.markup.redX;fillColor=#ff0000;html=1;shadow=0;whiteSpace=wrap;strokeColor=none;" parent="1" vertex="1">
          <mxGeometry x="2238" y="1772.5" width="20" height="20" as="geometry" />
        </mxCell>
        <mxCell id="nLOa7aUXmN414oC4y6V_-121" value="&lt;font face=&quot;Verdana&quot;&gt;&lt;span style=&quot;font-size: 14px;&quot;&gt;Remove Product &lt;br&gt;from database&lt;/span&gt;&lt;/font&gt;" style="text;html=1;align=center;verticalAlign=middle;resizable=0;points=[];autosize=1;strokeColor=none;fillColor=none;" parent="1" vertex="1">
          <mxGeometry x="2343.85" y="1622.5" width="140" height="50" as="geometry" />
        </mxCell>
        <mxCell id="nLOa7aUXmN414oC4y6V_-122" value="" style="rounded=1;whiteSpace=wrap;html=1;fillColor=#1ba1e2;fontColor=#ffffff;strokeColor=#006EAF;" parent="1" vertex="1">
          <mxGeometry x="2142.5" y="1900" width="120" height="35" as="geometry" />
        </mxCell>
        <mxCell id="nLOa7aUXmN414oC4y6V_-123" value="&lt;font face=&quot;Verdana&quot;&gt;&lt;span style=&quot;font-size: 14px;&quot;&gt;Add Product&lt;/span&gt;&lt;/font&gt;" style="text;html=1;align=center;verticalAlign=middle;resizable=0;points=[];autosize=1;fillColor=none;fontColor=#FFFFFF;" parent="1" vertex="1">
          <mxGeometry x="2147.5" y="1902.5" width="110" height="30" as="geometry" />
        </mxCell>
        <mxCell id="nLOa7aUXmN414oC4y6V_-124" value="" style="rounded=1;whiteSpace=wrap;html=1;arcSize=4;" parent="1" vertex="1">
          <mxGeometry x="2423.85" y="1675" width="431.65" height="400" as="geometry" />
        </mxCell>
        <mxCell id="nLOa7aUXmN414oC4y6V_-125" value="" style="rounded=1;whiteSpace=wrap;html=1;arcSize=4;" parent="1" vertex="1">
          <mxGeometry x="2587.68" y="1687.5" width="256" height="30" as="geometry" />
        </mxCell>
        <mxCell id="nLOa7aUXmN414oC4y6V_-126" value="&lt;font face=&quot;Verdana&quot;&gt;&lt;span style=&quot;font-size: 14px;&quot;&gt;Product Name&lt;/span&gt;&lt;/font&gt;" style="text;html=1;align=center;verticalAlign=middle;resizable=0;points=[];autosize=1;strokeColor=none;fillColor=none;" parent="1" vertex="1">
          <mxGeometry x="2439.68" y="1687.5" width="120" height="30" as="geometry" />
        </mxCell>
        <mxCell id="nLOa7aUXmN414oC4y6V_-128" value="&lt;font face=&quot;Verdana&quot;&gt;&lt;span style=&quot;font-size: 14px;&quot;&gt;Brand&lt;/span&gt;&lt;/font&gt;" style="text;html=1;align=center;verticalAlign=middle;resizable=0;points=[];autosize=1;strokeColor=none;fillColor=none;" parent="1" vertex="1">
          <mxGeometry x="2439.68" y="1732.5" width="60" height="30" as="geometry" />
        </mxCell>
        <mxCell id="nLOa7aUXmN414oC4y6V_-129" value="" style="rounded=1;whiteSpace=wrap;html=1;arcSize=4;" parent="1" vertex="1">
          <mxGeometry x="2587.68" y="1772.5" width="256" height="30" as="geometry" />
        </mxCell>
        <mxCell id="nLOa7aUXmN414oC4y6V_-130" value="" style="rounded=1;whiteSpace=wrap;html=1;arcSize=4;" parent="1" vertex="1">
          <mxGeometry x="2587.68" y="1732.5" width="256" height="30" as="geometry" />
        </mxCell>
        <mxCell id="nLOa7aUXmN414oC4y6V_-131" value="&lt;font face=&quot;Verdana&quot;&gt;&lt;span style=&quot;font-size: 14px;&quot;&gt;Price&lt;/span&gt;&lt;/font&gt;" style="text;html=1;align=center;verticalAlign=middle;resizable=0;points=[];autosize=1;strokeColor=none;fillColor=none;" parent="1" vertex="1">
          <mxGeometry x="2436.0299999999997" y="1772.5" width="60" height="30" as="geometry" />
        </mxCell>
        <mxCell id="nLOa7aUXmN414oC4y6V_-132" value="" style="rounded=1;whiteSpace=wrap;html=1;arcSize=4;" parent="1" vertex="1">
          <mxGeometry x="2588.68" y="1815" width="256" height="60" as="geometry" />
        </mxCell>
        <mxCell id="nLOa7aUXmN414oC4y6V_-133" value="&lt;font face=&quot;Verdana&quot;&gt;&lt;span style=&quot;font-size: 14px;&quot;&gt;Product Desc&lt;/span&gt;&lt;/font&gt;" style="text;html=1;align=center;verticalAlign=middle;resizable=0;points=[];autosize=1;strokeColor=none;fillColor=none;" parent="1" vertex="1">
          <mxGeometry x="2436.0299999999997" y="1815" width="120" height="30" as="geometry" />
        </mxCell>
        <mxCell id="nLOa7aUXmN414oC4y6V_-134" style="edgeStyle=orthogonalEdgeStyle;rounded=0;orthogonalLoop=1;jettySize=auto;html=1;entryX=0.003;entryY=0.183;entryDx=0;entryDy=0;entryPerimeter=0;" parent="1" source="nLOa7aUXmN414oC4y6V_-123" target="nLOa7aUXmN414oC4y6V_-124" edge="1">
          <mxGeometry relative="1" as="geometry" />
        </mxCell>
        <mxCell id="nLOa7aUXmN414oC4y6V_-135" value="&lt;font face=&quot;Verdana&quot;&gt;&lt;span style=&quot;font-size: 14px;&quot;&gt;Category&lt;/span&gt;&lt;/font&gt;" style="text;html=1;align=center;verticalAlign=middle;resizable=0;points=[];autosize=1;strokeColor=none;fillColor=none;" parent="1" vertex="1">
          <mxGeometry x="2436.0299999999997" y="1887.5" width="90" height="30" as="geometry" />
        </mxCell>
        <mxCell id="nLOa7aUXmN414oC4y6V_-136" value="" style="rounded=1;whiteSpace=wrap;html=1;arcSize=4;" parent="1" vertex="1">
          <mxGeometry x="2588.68" y="1887.5" width="256" height="30" as="geometry" />
        </mxCell>
        <mxCell id="nLOa7aUXmN414oC4y6V_-137" value="" style="rounded=1;whiteSpace=wrap;html=1;dashed=1;" parent="1" vertex="1">
          <mxGeometry x="2439.68" y="1962.5" width="120" height="50" as="geometry" />
        </mxCell>
        <mxCell id="nLOa7aUXmN414oC4y6V_-138" value="" style="rounded=1;whiteSpace=wrap;html=1;dashed=1;" parent="1" vertex="1">
          <mxGeometry x="2581.8599999999997" y="1962.5" width="120" height="50" as="geometry" />
        </mxCell>
        <mxCell id="nLOa7aUXmN414oC4y6V_-139" value="" style="rounded=1;whiteSpace=wrap;html=1;dashed=1;" parent="1" vertex="1">
          <mxGeometry x="2723.68" y="1962.5" width="120" height="50" as="geometry" />
        </mxCell>
        <mxCell id="nLOa7aUXmN414oC4y6V_-140" value="&lt;font face=&quot;Verdana&quot;&gt;&lt;span style=&quot;font-size: 14px;&quot;&gt;Upload Images&lt;/span&gt;&lt;/font&gt;" style="text;html=1;align=center;verticalAlign=middle;resizable=0;points=[];autosize=1;strokeColor=none;fillColor=none;" parent="1" vertex="1">
          <mxGeometry x="2434.68" y="1927.5" width="130" height="30" as="geometry" />
        </mxCell>
        <mxCell id="nLOa7aUXmN414oC4y6V_-141" value="&lt;font face=&quot;Verdana&quot;&gt;&lt;span style=&quot;font-size: 14px;&quot;&gt;Image 1&lt;/span&gt;&lt;/font&gt;" style="text;html=1;align=center;verticalAlign=middle;resizable=0;points=[];autosize=1;strokeColor=none;fillColor=none;" parent="1" vertex="1">
          <mxGeometry x="2449.68" y="1972.5" width="80" height="30" as="geometry" />
        </mxCell>
        <mxCell id="nLOa7aUXmN414oC4y6V_-142" value="&lt;font face=&quot;Verdana&quot;&gt;&lt;span style=&quot;font-size: 14px;&quot;&gt;Image 2&lt;/span&gt;&lt;/font&gt;" style="text;html=1;align=center;verticalAlign=middle;resizable=0;points=[];autosize=1;strokeColor=none;fillColor=none;" parent="1" vertex="1">
          <mxGeometry x="2601.8599999999997" y="1972.5" width="80" height="30" as="geometry" />
        </mxCell>
        <mxCell id="nLOa7aUXmN414oC4y6V_-143" value="&lt;font face=&quot;Verdana&quot;&gt;&lt;span style=&quot;font-size: 14px;&quot;&gt;Image 3&lt;/span&gt;&lt;/font&gt;" style="text;html=1;align=center;verticalAlign=middle;resizable=0;points=[];autosize=1;strokeColor=none;fillColor=none;" parent="1" vertex="1">
          <mxGeometry x="2743.68" y="1972.5" width="80" height="30" as="geometry" />
        </mxCell>
        <mxCell id="nLOa7aUXmN414oC4y6V_-144" value="" style="rounded=1;whiteSpace=wrap;html=1;fillColor=#e51400;fontColor=#ffffff;strokeColor=#B20000;" parent="1" vertex="1">
          <mxGeometry x="2488.68" y="2022.5" width="100" height="35" as="geometry" />
        </mxCell>
        <mxCell id="nLOa7aUXmN414oC4y6V_-145" value="&lt;font face=&quot;Verdana&quot;&gt;&lt;span style=&quot;font-size: 14px;&quot;&gt;Cancel&lt;/span&gt;&lt;/font&gt;" style="text;html=1;align=center;verticalAlign=middle;resizable=0;points=[];autosize=1;fillColor=none;fontColor=#FFFFFF;" parent="1" vertex="1">
          <mxGeometry x="2503.68" y="2025" width="70" height="30" as="geometry" />
        </mxCell>
        <mxCell id="nLOa7aUXmN414oC4y6V_-146" value="" style="rounded=1;whiteSpace=wrap;html=1;fillColor=#60a917;fontColor=#ffffff;strokeColor=#2D7600;" parent="1" vertex="1">
          <mxGeometry x="2669.68" y="2022.5" width="120" height="35" as="geometry" />
        </mxCell>
        <mxCell id="akrNPFHpnsv7y5JYQiHU-114" style="edgeStyle=orthogonalEdgeStyle;rounded=0;orthogonalLoop=1;jettySize=auto;html=1;entryX=0.5;entryY=1;entryDx=0;entryDy=0;" parent="1" source="nLOa7aUXmN414oC4y6V_-147" target="nLOa7aUXmN414oC4y6V_-92" edge="1">
          <mxGeometry relative="1" as="geometry">
            <Array as="points">
              <mxPoint x="2690" y="2110" />
              <mxPoint x="2098" y="2110" />
            </Array>
          </mxGeometry>
        </mxCell>
        <mxCell id="nLOa7aUXmN414oC4y6V_-147" value="&lt;font face=&quot;Verdana&quot;&gt;&lt;span style=&quot;font-size: 14px;&quot;&gt;Add Product&lt;/span&gt;&lt;/font&gt;" style="text;html=1;align=center;verticalAlign=middle;resizable=0;points=[];autosize=1;fillColor=none;fontColor=#FFFFFF;" parent="1" vertex="1">
          <mxGeometry x="2672" y="2022.5" width="110" height="30" as="geometry" />
        </mxCell>
        <mxCell id="nLOa7aUXmN414oC4y6V_-148" value="&lt;b&gt;ADD PRODUCTS&lt;/b&gt;" style="text;html=1;strokeColor=none;fillColor=none;align=center;verticalAlign=middle;whiteSpace=wrap;rounded=0;fontFamily=Verdana;fontSize=14;" parent="1" vertex="1">
          <mxGeometry x="2569.93" y="1642.5" width="139.5" height="30" as="geometry" />
        </mxCell>
        <mxCell id="nLOa7aUXmN414oC4y6V_-150" value="&lt;font face=&quot;Verdana&quot;&gt;&lt;span style=&quot;font-size: 14px;&quot;&gt;Show products&amp;nbsp;&lt;br&gt;of wishlist&lt;br&gt;&lt;/span&gt;&lt;/font&gt;" style="text;html=1;align=center;verticalAlign=middle;resizable=0;points=[];autosize=1;strokeColor=none;fillColor=none;" parent="1" vertex="1">
          <mxGeometry x="1816" y="2017.5" width="130" height="50" as="geometry" />
        </mxCell>
        <mxCell id="nLOa7aUXmN414oC4y6V_-153" style="edgeStyle=orthogonalEdgeStyle;rounded=0;orthogonalLoop=1;jettySize=auto;html=1;" parent="1" source="nLOa7aUXmN414oC4y6V_-152" edge="1">
          <mxGeometry relative="1" as="geometry">
            <mxPoint x="1225.5" y="2080" as="targetPoint" />
          </mxGeometry>
        </mxCell>
        <mxCell id="nLOa7aUXmN414oC4y6V_-152" value="&lt;font face=&quot;Verdana&quot;&gt;&lt;span style=&quot;font-size: 14px;&quot;&gt;Person logout&amp;nbsp;&lt;br&gt;from application&lt;br&gt;&lt;/span&gt;&lt;/font&gt;" style="text;html=1;align=center;verticalAlign=middle;resizable=0;points=[];autosize=1;strokeColor=none;fillColor=none;" parent="1" vertex="1">
          <mxGeometry x="1285.5" y="2055" width="140" height="50" as="geometry" />
        </mxCell>
        <mxCell id="nLOa7aUXmN414oC4y6V_-154" value="&lt;font face=&quot;Verdana&quot;&gt;&lt;span style=&quot;font-size: 14px;&quot;&gt;Redirect to&amp;nbsp;&lt;br&gt;welcome page&lt;br&gt;&lt;/span&gt;&lt;/font&gt;" style="text;html=1;align=center;verticalAlign=middle;resizable=0;points=[];autosize=1;strokeColor=none;fillColor=none;" parent="1" vertex="1">
          <mxGeometry x="1085.5" y="2052.5" width="120" height="50" as="geometry" />
        </mxCell>
        <mxCell id="nLOa7aUXmN414oC4y6V_-156" value="&lt;font face=&quot;Verdana&quot;&gt;&lt;span style=&quot;font-size: 14px;&quot;&gt;After&lt;br&gt;Login&lt;br&gt;&lt;/span&gt;&lt;/font&gt;" style="text;html=1;align=center;verticalAlign=middle;resizable=0;points=[];autosize=1;strokeColor=none;fillColor=none;" parent="1" vertex="1">
          <mxGeometry x="2100" y="2330" width="60" height="50" as="geometry" />
        </mxCell>
        <mxCell id="akrNPFHpnsv7y5JYQiHU-2" value="" style="rounded=1;whiteSpace=wrap;html=1;arcSize=4;" parent="1" vertex="1">
          <mxGeometry x="3070" y="1990" width="431.65" height="310" as="geometry" />
        </mxCell>
        <mxCell id="akrNPFHpnsv7y5JYQiHU-3" value="" style="rounded=1;whiteSpace=wrap;html=1;arcSize=4;" parent="1" vertex="1">
          <mxGeometry x="3221.08" y="2082.5" width="256" height="30" as="geometry" />
        </mxCell>
        <mxCell id="akrNPFHpnsv7y5JYQiHU-4" value="&lt;font face=&quot;Verdana&quot;&gt;&lt;span style=&quot;font-size: 14px;&quot;&gt;User Name&lt;/span&gt;&lt;/font&gt;" style="text;html=1;align=center;verticalAlign=middle;resizable=0;points=[];autosize=1;strokeColor=none;fillColor=none;" parent="1" vertex="1">
          <mxGeometry x="3094.56" y="2082.5" width="100" height="30" as="geometry" />
        </mxCell>
        <mxCell id="akrNPFHpnsv7y5JYQiHU-5" value="&lt;font face=&quot;Verdana&quot;&gt;&lt;span style=&quot;font-size: 14px;&quot;&gt;Password&lt;/span&gt;&lt;/font&gt;" style="text;html=1;align=center;verticalAlign=middle;resizable=0;points=[];autosize=1;strokeColor=none;fillColor=none;" parent="1" vertex="1">
          <mxGeometry x="3099.56" y="2122.5" width="90" height="30" as="geometry" />
        </mxCell>
        <mxCell id="akrNPFHpnsv7y5JYQiHU-6" value="" style="rounded=1;whiteSpace=wrap;html=1;arcSize=4;" parent="1" vertex="1">
          <mxGeometry x="3221.08" y="2127.5" width="256" height="30" as="geometry" />
        </mxCell>
        <mxCell id="akrNPFHpnsv7y5JYQiHU-8" value="" style="rounded=1;whiteSpace=wrap;html=1;fillColor=#60a917;fontColor=#ffffff;strokeColor=#2D7600;" parent="1" vertex="1">
          <mxGeometry x="3112" y="2230" width="120" height="35" as="geometry" />
        </mxCell>
        <mxCell id="akrNPFHpnsv7y5JYQiHU-20" style="edgeStyle=orthogonalEdgeStyle;rounded=0;orthogonalLoop=1;jettySize=auto;html=1;" parent="1" source="akrNPFHpnsv7y5JYQiHU-9" edge="1">
          <mxGeometry relative="1" as="geometry">
            <mxPoint x="3172" y="2330" as="targetPoint" />
          </mxGeometry>
        </mxCell>
        <mxCell id="akrNPFHpnsv7y5JYQiHU-9" value="&lt;font face=&quot;Verdana&quot;&gt;&lt;span style=&quot;font-size: 14px;&quot;&gt;Login&lt;/span&gt;&lt;/font&gt;" style="text;html=1;align=center;verticalAlign=middle;resizable=0;points=[];autosize=1;fillColor=none;fontColor=#FFFFFF;" parent="1" vertex="1">
          <mxGeometry x="3142" y="2232.5" width="60" height="30" as="geometry" />
        </mxCell>
        <mxCell id="akrNPFHpnsv7y5JYQiHU-31" style="edgeStyle=orthogonalEdgeStyle;rounded=0;orthogonalLoop=1;jettySize=auto;html=1;exitX=1;exitY=0.5;exitDx=0;exitDy=0;entryX=0;entryY=0.5;entryDx=0;entryDy=0;" parent="1" source="akrNPFHpnsv7y5JYQiHU-10" target="akrNPFHpnsv7y5JYQiHU-30" edge="1">
          <mxGeometry relative="1" as="geometry" />
        </mxCell>
        <mxCell id="akrNPFHpnsv7y5JYQiHU-10" value="" style="rounded=1;whiteSpace=wrap;html=1;fillColor=#1ba1e2;fontColor=#ffffff;strokeColor=#006EAF;" parent="1" vertex="1">
          <mxGeometry x="3333.35" y="2230" width="120" height="35" as="geometry" />
        </mxCell>
        <mxCell id="akrNPFHpnsv7y5JYQiHU-11" value="&lt;font face=&quot;Verdana&quot;&gt;&lt;span style=&quot;font-size: 14px;&quot;&gt;Sign Up&lt;/span&gt;&lt;/font&gt;" style="text;html=1;align=center;verticalAlign=middle;resizable=0;points=[];autosize=1;fillColor=none;fontColor=#FFFFFF;" parent="1" vertex="1">
          <mxGeometry x="3353.35" y="2232.5" width="80" height="30" as="geometry" />
        </mxCell>
        <mxCell id="akrNPFHpnsv7y5JYQiHU-61" style="edgeStyle=orthogonalEdgeStyle;rounded=0;orthogonalLoop=1;jettySize=auto;html=1;" parent="1" source="akrNPFHpnsv7y5JYQiHU-12" edge="1">
          <mxGeometry relative="1" as="geometry">
            <mxPoint x="3530" y="1820" as="targetPoint" />
          </mxGeometry>
        </mxCell>
        <mxCell id="akrNPFHpnsv7y5JYQiHU-12" value="&lt;font color=&quot;#007fff&quot; face=&quot;Verdana&quot;&gt;&lt;span style=&quot;font-size: 14px;&quot;&gt;Forget password?&lt;/span&gt;&lt;/font&gt;" style="text;html=1;align=center;verticalAlign=middle;resizable=0;points=[];autosize=1;strokeColor=none;fillColor=none;" parent="1" vertex="1">
          <mxGeometry x="3328.35" y="2157.5" width="150" height="30" as="geometry" />
        </mxCell>
        <mxCell id="akrNPFHpnsv7y5JYQiHU-27" style="edgeStyle=orthogonalEdgeStyle;rounded=0;orthogonalLoop=1;jettySize=auto;html=1;" parent="1" source="akrNPFHpnsv7y5JYQiHU-21" edge="1">
          <mxGeometry relative="1" as="geometry">
            <mxPoint x="3310" y="2310" as="targetPoint" />
          </mxGeometry>
        </mxCell>
        <mxCell id="akrNPFHpnsv7y5JYQiHU-21" value="" style="strokeWidth=2;html=1;shape=mxgraph.flowchart.decision;whiteSpace=wrap;" parent="1" vertex="1">
          <mxGeometry x="3104" y="2330" width="138" height="130" as="geometry" />
        </mxCell>
        <mxCell id="akrNPFHpnsv7y5JYQiHU-22" value="&lt;font face=&quot;Verdana&quot;&gt;&lt;span style=&quot;font-size: 14px;&quot;&gt;is valid?&lt;/span&gt;&lt;/font&gt;" style="text;html=1;align=center;verticalAlign=middle;resizable=0;points=[];autosize=1;strokeColor=none;fillColor=none;" parent="1" vertex="1">
          <mxGeometry x="3133.35" y="2380" width="80" height="30" as="geometry" />
        </mxCell>
        <mxCell id="akrNPFHpnsv7y5JYQiHU-24" style="edgeStyle=orthogonalEdgeStyle;rounded=0;orthogonalLoop=1;jettySize=auto;html=1;exitX=0;exitY=0.5;exitDx=0;exitDy=0;exitPerimeter=0;entryX=0.966;entryY=0.035;entryDx=0;entryDy=0;entryPerimeter=0;" parent="1" source="akrNPFHpnsv7y5JYQiHU-21" target="JUd5yHKMKR-s4hX0yN-B-5" edge="1">
          <mxGeometry relative="1" as="geometry" />
        </mxCell>
        <mxCell id="akrNPFHpnsv7y5JYQiHU-25" value="&lt;font face=&quot;Verdana&quot;&gt;&lt;span style=&quot;font-size: 14px;&quot;&gt;Redirect To&lt;br&gt;Welcome Page&lt;br&gt;&lt;/span&gt;&lt;/font&gt;" style="text;html=1;align=center;verticalAlign=middle;resizable=0;points=[];autosize=1;strokeColor=none;fillColor=none;" parent="1" vertex="1">
          <mxGeometry x="2856" y="2400" width="130" height="50" as="geometry" />
        </mxCell>
        <mxCell id="akrNPFHpnsv7y5JYQiHU-26" value="&lt;font face=&quot;Verdana&quot;&gt;&lt;span style=&quot;font-size: 14px;&quot;&gt;true&lt;br&gt;&lt;/span&gt;&lt;/font&gt;" style="text;html=1;align=center;verticalAlign=middle;resizable=0;points=[];autosize=1;strokeColor=none;fillColor=none;" parent="1" vertex="1">
          <mxGeometry x="3052" y="2360" width="50" height="30" as="geometry" />
        </mxCell>
        <mxCell id="akrNPFHpnsv7y5JYQiHU-28" value="&lt;font face=&quot;Verdana&quot;&gt;&lt;span style=&quot;font-size: 14px;&quot;&gt;Stay on&amp;nbsp;&lt;br&gt;same page&lt;br&gt;with error msg&lt;br&gt;&lt;/span&gt;&lt;/font&gt;" style="text;html=1;align=center;verticalAlign=middle;resizable=0;points=[];autosize=1;strokeColor=none;fillColor=none;" parent="1" vertex="1">
          <mxGeometry x="3298.35" y="2325" width="130" height="60" as="geometry" />
        </mxCell>
        <mxCell id="akrNPFHpnsv7y5JYQiHU-30" value="" style="rounded=1;whiteSpace=wrap;html=1;arcSize=4;" parent="1" vertex="1">
          <mxGeometry x="3792" y="1720" width="431.65" height="577.5" as="geometry" />
        </mxCell>
        <mxCell id="akrNPFHpnsv7y5JYQiHU-32" value="&lt;font face=&quot;Verdana&quot;&gt;&lt;span style=&quot;font-size: 14px;&quot;&gt;Must redirect&amp;nbsp;&lt;br&gt;to Register Page&lt;br&gt;&lt;/span&gt;&lt;/font&gt;" style="text;html=1;align=center;verticalAlign=middle;resizable=0;points=[];autosize=1;strokeColor=none;fillColor=none;" parent="1" vertex="1">
          <mxGeometry x="3501.65" y="2247.5" width="140" height="50" as="geometry" />
        </mxCell>
        <mxCell id="akrNPFHpnsv7y5JYQiHU-33" value="" style="rounded=1;whiteSpace=wrap;html=1;arcSize=4;" parent="1" vertex="1">
          <mxGeometry x="3943.5299999999997" y="1877.5" width="256" height="30" as="geometry" />
        </mxCell>
        <mxCell id="akrNPFHpnsv7y5JYQiHU-34" value="&lt;font face=&quot;Verdana&quot;&gt;&lt;span style=&quot;font-size: 14px;&quot;&gt;First Name&lt;/span&gt;&lt;/font&gt;" style="text;html=1;align=center;verticalAlign=middle;resizable=0;points=[];autosize=1;strokeColor=none;fillColor=none;" parent="1" vertex="1">
          <mxGeometry x="3817.0099999999993" y="1877.5" width="100" height="30" as="geometry" />
        </mxCell>
        <mxCell id="akrNPFHpnsv7y5JYQiHU-35" value="&lt;font face=&quot;Verdana&quot;&gt;&lt;span style=&quot;font-size: 14px;&quot;&gt;Last Name&lt;/span&gt;&lt;/font&gt;" style="text;html=1;align=center;verticalAlign=middle;resizable=0;points=[];autosize=1;strokeColor=none;fillColor=none;" parent="1" vertex="1">
          <mxGeometry x="3817.0099999999993" y="1922.5" width="100" height="30" as="geometry" />
        </mxCell>
        <mxCell id="akrNPFHpnsv7y5JYQiHU-36" value="" style="rounded=1;whiteSpace=wrap;html=1;arcSize=4;" parent="1" vertex="1">
          <mxGeometry x="3943.5299999999997" y="1922.5" width="256" height="30" as="geometry" />
        </mxCell>
        <mxCell id="akrNPFHpnsv7y5JYQiHU-37" value="&lt;font style=&quot;font-size: 22px;&quot; face=&quot;Verdana&quot;&gt;Login Page&lt;/font&gt;" style="text;html=1;align=center;verticalAlign=middle;resizable=0;points=[];autosize=1;strokeColor=none;fillColor=none;" parent="1" vertex="1">
          <mxGeometry x="3215.8199999999997" y="2002.5" width="140" height="40" as="geometry" />
        </mxCell>
        <mxCell id="akrNPFHpnsv7y5JYQiHU-38" value="&lt;font face=&quot;Verdana&quot;&gt;&lt;span style=&quot;font-size: 14px;&quot;&gt;Email&lt;/span&gt;&lt;/font&gt;" style="text;html=1;align=center;verticalAlign=middle;resizable=0;points=[];autosize=1;strokeColor=none;fillColor=none;" parent="1" vertex="1">
          <mxGeometry x="3837.0099999999993" y="1965" width="60" height="30" as="geometry" />
        </mxCell>
        <mxCell id="akrNPFHpnsv7y5JYQiHU-39" value="" style="rounded=1;whiteSpace=wrap;html=1;arcSize=4;" parent="1" vertex="1">
          <mxGeometry x="3943.5299999999997" y="1965" width="256" height="30" as="geometry" />
        </mxCell>
        <mxCell id="akrNPFHpnsv7y5JYQiHU-40" value="&lt;font face=&quot;Verdana&quot;&gt;&lt;span style=&quot;font-size: 14px;&quot;&gt;Password&lt;/span&gt;&lt;/font&gt;" style="text;html=1;align=center;verticalAlign=middle;resizable=0;points=[];autosize=1;strokeColor=none;fillColor=none;" parent="1" vertex="1">
          <mxGeometry x="3821.999999999999" y="2010" width="90" height="30" as="geometry" />
        </mxCell>
        <mxCell id="akrNPFHpnsv7y5JYQiHU-41" value="" style="rounded=1;whiteSpace=wrap;html=1;arcSize=4;" parent="1" vertex="1">
          <mxGeometry x="3943.5199999999995" y="2010" width="256" height="30" as="geometry" />
        </mxCell>
        <mxCell id="akrNPFHpnsv7y5JYQiHU-42" value="&lt;font face=&quot;Verdana&quot;&gt;&lt;span style=&quot;font-size: 14px;&quot;&gt;Confirm Password&lt;/span&gt;&lt;/font&gt;" style="text;html=1;align=center;verticalAlign=middle;resizable=0;points=[];autosize=1;strokeColor=none;fillColor=none;" parent="1" vertex="1">
          <mxGeometry x="3791.999999999999" y="2055" width="150" height="30" as="geometry" />
        </mxCell>
        <mxCell id="akrNPFHpnsv7y5JYQiHU-43" value="" style="rounded=1;whiteSpace=wrap;html=1;arcSize=4;" parent="1" vertex="1">
          <mxGeometry x="3943.5199999999995" y="2055" width="256" height="30" as="geometry" />
        </mxCell>
        <mxCell id="akrNPFHpnsv7y5JYQiHU-44" value="&lt;font face=&quot;Verdana&quot;&gt;&lt;span style=&quot;font-size: 14px;&quot;&gt;Mobile No&lt;/span&gt;&lt;/font&gt;" style="text;html=1;align=center;verticalAlign=middle;resizable=0;points=[];autosize=1;strokeColor=none;fillColor=none;" parent="1" vertex="1">
          <mxGeometry x="3822.0099999999993" y="2105" width="90" height="30" as="geometry" />
        </mxCell>
        <mxCell id="akrNPFHpnsv7y5JYQiHU-45" value="" style="rounded=1;whiteSpace=wrap;html=1;arcSize=4;" parent="1" vertex="1">
          <mxGeometry x="3943.5299999999997" y="2105" width="256" height="30" as="geometry" />
        </mxCell>
        <mxCell id="akrNPFHpnsv7y5JYQiHU-46" value="&lt;font face=&quot;Verdana&quot;&gt;&lt;span style=&quot;font-size: 14px;&quot;&gt;City&lt;/span&gt;&lt;/font&gt;" style="text;html=1;align=center;verticalAlign=middle;resizable=0;points=[];autosize=1;strokeColor=none;fillColor=none;" parent="1" vertex="1">
          <mxGeometry x="3842.0099999999993" y="2150" width="50" height="30" as="geometry" />
        </mxCell>
        <mxCell id="akrNPFHpnsv7y5JYQiHU-47" value="" style="rounded=1;whiteSpace=wrap;html=1;arcSize=4;" parent="1" vertex="1">
          <mxGeometry x="3943.5299999999997" y="2150" width="256" height="30" as="geometry" />
        </mxCell>
        <mxCell id="akrNPFHpnsv7y5JYQiHU-49" value="" style="shape=image;html=1;verticalAlign=top;verticalLabelPosition=bottom;labelBackgroundColor=#ffffff;imageAspect=0;aspect=fixed;image=https://cdn2.iconfinder.com/data/icons/navigation-set-arrows-part-two/32/Arrow_Drop_Down_Circle-128.png" parent="1" vertex="1">
          <mxGeometry x="4163" y="2152" width="28" height="28" as="geometry" />
        </mxCell>
        <mxCell id="akrNPFHpnsv7y5JYQiHU-50" value="&lt;font face=&quot;Verdana&quot;&gt;&lt;span style=&quot;font-size: 14px;&quot;&gt;Select City...&lt;/span&gt;&lt;/font&gt;" style="text;html=1;align=center;verticalAlign=middle;resizable=0;points=[];autosize=1;strokeColor=none;fillColor=none;" parent="1" vertex="1">
          <mxGeometry x="3943.5299999999993" y="2150" width="110" height="30" as="geometry" />
        </mxCell>
        <mxCell id="akrNPFHpnsv7y5JYQiHU-51" value="" style="rounded=1;whiteSpace=wrap;html=1;fillColor=#1ba1e2;fontColor=#ffffff;strokeColor=#006EAF;" parent="1" vertex="1">
          <mxGeometry x="4066" y="2232.5" width="120" height="35" as="geometry" />
        </mxCell>
        <mxCell id="akrNPFHpnsv7y5JYQiHU-55" style="edgeStyle=orthogonalEdgeStyle;rounded=0;orthogonalLoop=1;jettySize=auto;html=1;exitX=0.688;exitY=1.083;exitDx=0;exitDy=0;exitPerimeter=0;" parent="1" source="akrNPFHpnsv7y5JYQiHU-54" edge="1">
          <mxGeometry relative="1" as="geometry">
            <mxPoint x="3450" y="2300" as="targetPoint" />
            <Array as="points">
              <mxPoint x="3910" y="2390" />
              <mxPoint x="3450" y="2390" />
              <mxPoint x="3450" y="2300" />
            </Array>
          </mxGeometry>
        </mxCell>
        <mxCell id="akrNPFHpnsv7y5JYQiHU-58" style="edgeStyle=orthogonalEdgeStyle;rounded=0;orthogonalLoop=1;jettySize=auto;html=1;" parent="1" source="akrNPFHpnsv7y5JYQiHU-52" edge="1">
          <mxGeometry relative="1" as="geometry">
            <mxPoint x="4126" y="2370" as="targetPoint" />
          </mxGeometry>
        </mxCell>
        <mxCell id="akrNPFHpnsv7y5JYQiHU-52" value="&lt;font face=&quot;Verdana&quot;&gt;&lt;span style=&quot;font-size: 14px;&quot;&gt;Cancel&amp;nbsp;&lt;/span&gt;&lt;/font&gt;" style="text;html=1;align=center;verticalAlign=middle;resizable=0;points=[];autosize=1;fillColor=none;fontColor=#FFFFFF;" parent="1" vertex="1">
          <mxGeometry x="4091" y="2235" width="70" height="30" as="geometry" />
        </mxCell>
        <mxCell id="akrNPFHpnsv7y5JYQiHU-53" value="" style="rounded=1;whiteSpace=wrap;html=1;fillColor=#1ba1e2;fontColor=#ffffff;strokeColor=#006EAF;" parent="1" vertex="1">
          <mxGeometry x="3835" y="2230" width="120" height="35" as="geometry" />
        </mxCell>
        <mxCell id="akrNPFHpnsv7y5JYQiHU-54" value="&lt;font face=&quot;Verdana&quot;&gt;&lt;span style=&quot;font-size: 14px;&quot;&gt;Sign Up&lt;/span&gt;&lt;/font&gt;" style="text;html=1;align=center;verticalAlign=middle;resizable=0;points=[];autosize=1;fillColor=none;fontColor=#FFFFFF;" parent="1" vertex="1">
          <mxGeometry x="3855" y="2232.5" width="80" height="30" as="geometry" />
        </mxCell>
        <mxCell id="akrNPFHpnsv7y5JYQiHU-56" value="&lt;font face=&quot;Verdana&quot;&gt;&lt;span style=&quot;font-size: 14px;&quot;&gt;Must redirect&amp;nbsp;&lt;br&gt;to login Page&lt;br&gt;&lt;/span&gt;&lt;/font&gt;" style="text;html=1;align=center;verticalAlign=middle;resizable=0;points=[];autosize=1;strokeColor=none;fillColor=none;" parent="1" vertex="1">
          <mxGeometry x="3622" y="2340" width="120" height="50" as="geometry" />
        </mxCell>
        <mxCell id="akrNPFHpnsv7y5JYQiHU-59" value="&lt;font face=&quot;Verdana&quot;&gt;&lt;span style=&quot;font-size: 14px;&quot;&gt;Must redirect&lt;br&gt;to Welcome page&lt;br&gt;&lt;/span&gt;&lt;/font&gt;" style="text;html=1;align=center;verticalAlign=middle;resizable=0;points=[];autosize=1;strokeColor=none;fillColor=none;" parent="1" vertex="1">
          <mxGeometry x="4056" y="2380" width="140" height="50" as="geometry" />
        </mxCell>
        <mxCell id="akrNPFHpnsv7y5JYQiHU-60" value="&lt;font style=&quot;font-size: 22px;&quot; face=&quot;Verdana&quot;&gt;Sign Up Page&lt;/font&gt;" style="text;html=1;align=center;verticalAlign=middle;resizable=0;points=[];autosize=1;strokeColor=none;fillColor=none;" parent="1" vertex="1">
          <mxGeometry x="3922.8199999999993" y="1740" width="170" height="40" as="geometry" />
        </mxCell>
        <mxCell id="akrNPFHpnsv7y5JYQiHU-62" value="" style="rounded=1;whiteSpace=wrap;html=1;arcSize=4;" parent="1" vertex="1">
          <mxGeometry x="3318.35" y="1497.5" width="431.65" height="310" as="geometry" />
        </mxCell>
        <mxCell id="akrNPFHpnsv7y5JYQiHU-63" value="" style="rounded=1;whiteSpace=wrap;html=1;arcSize=4;" parent="1" vertex="1">
          <mxGeometry x="3470" y="1560" width="256" height="30" as="geometry" />
        </mxCell>
        <mxCell id="akrNPFHpnsv7y5JYQiHU-64" value="&lt;font face=&quot;Verdana&quot;&gt;&lt;span style=&quot;font-size: 14px;&quot;&gt;Email&lt;/span&gt;&lt;/font&gt;" style="text;html=1;align=center;verticalAlign=middle;resizable=0;points=[];autosize=1;strokeColor=none;fillColor=none;" parent="1" vertex="1">
          <mxGeometry x="3363.35" y="1560" width="60" height="30" as="geometry" />
        </mxCell>
        <mxCell id="akrNPFHpnsv7y5JYQiHU-65" value="&lt;font face=&quot;Verdana&quot;&gt;&lt;span style=&quot;font-size: 14px;&quot;&gt;Enter OTP&lt;/span&gt;&lt;/font&gt;" style="text;html=1;align=center;verticalAlign=middle;resizable=0;points=[];autosize=1;strokeColor=none;fillColor=none;" parent="1" vertex="1">
          <mxGeometry x="3348" y="1635" width="90" height="30" as="geometry" />
        </mxCell>
        <mxCell id="akrNPFHpnsv7y5JYQiHU-66" value="" style="rounded=1;whiteSpace=wrap;html=1;arcSize=4;" parent="1" vertex="1">
          <mxGeometry x="3469.43" y="1635" width="256" height="30" as="geometry" />
        </mxCell>
        <mxCell id="akrNPFHpnsv7y5JYQiHU-91" style="edgeStyle=orthogonalEdgeStyle;rounded=0;orthogonalLoop=1;jettySize=auto;html=1;exitX=0;exitY=0.5;exitDx=0;exitDy=0;entryX=0.5;entryY=1;entryDx=0;entryDy=0;" parent="1" source="akrNPFHpnsv7y5JYQiHU-67" target="akrNPFHpnsv7y5JYQiHU-81" edge="1">
          <mxGeometry relative="1" as="geometry" />
        </mxCell>
        <mxCell id="akrNPFHpnsv7y5JYQiHU-67" value="" style="rounded=1;whiteSpace=wrap;html=1;fillColor=#60a917;fontColor=#ffffff;strokeColor=#2D7600;" parent="1" vertex="1">
          <mxGeometry x="3360.35" y="1737.5" width="120" height="35" as="geometry" />
        </mxCell>
        <mxCell id="akrNPFHpnsv7y5JYQiHU-68" value="&lt;font face=&quot;Verdana&quot;&gt;&lt;span style=&quot;font-size: 14px;&quot;&gt;Validate OTP&lt;/span&gt;&lt;/font&gt;" style="text;html=1;align=center;verticalAlign=middle;resizable=0;points=[];autosize=1;fillColor=none;fontColor=#FFFFFF;" parent="1" vertex="1">
          <mxGeometry x="3365.35" y="1740" width="110" height="30" as="geometry" />
        </mxCell>
        <mxCell id="akrNPFHpnsv7y5JYQiHU-69" value="" style="rounded=1;whiteSpace=wrap;html=1;fillColor=#1ba1e2;fontColor=#ffffff;strokeColor=#006EAF;" parent="1" vertex="1">
          <mxGeometry x="3581.7" y="1737.5" width="120" height="35" as="geometry" />
        </mxCell>
        <mxCell id="akrNPFHpnsv7y5JYQiHU-102" style="edgeStyle=orthogonalEdgeStyle;rounded=0;orthogonalLoop=1;jettySize=auto;html=1;" parent="1" source="akrNPFHpnsv7y5JYQiHU-70" edge="1">
          <mxGeometry relative="1" as="geometry">
            <mxPoint x="3641.7" y="1870" as="targetPoint" />
          </mxGeometry>
        </mxCell>
        <mxCell id="akrNPFHpnsv7y5JYQiHU-70" value="&lt;font face=&quot;Verdana&quot;&gt;&lt;span style=&quot;font-size: 14px;&quot;&gt;Cancel&lt;/span&gt;&lt;/font&gt;" style="text;html=1;align=center;verticalAlign=middle;resizable=0;points=[];autosize=1;fillColor=none;fontColor=#FFFFFF;" parent="1" vertex="1">
          <mxGeometry x="3606.7" y="1740" width="70" height="30" as="geometry" />
        </mxCell>
        <mxCell id="akrNPFHpnsv7y5JYQiHU-71" value="&lt;font style=&quot;font-size: 22px;&quot; face=&quot;Verdana&quot;&gt;Forget Password Page&lt;/font&gt;" style="text;html=1;align=center;verticalAlign=middle;resizable=0;points=[];autosize=1;strokeColor=none;fillColor=none;" parent="1" vertex="1">
          <mxGeometry x="3399.1699999999996" y="1510" width="270" height="40" as="geometry" />
        </mxCell>
        <mxCell id="akrNPFHpnsv7y5JYQiHU-73" value="&lt;font color=&quot;#007fff&quot; face=&quot;Verdana&quot;&gt;&lt;span style=&quot;font-size: 14px;&quot;&gt;Send OTP&lt;/span&gt;&lt;/font&gt;" style="text;html=1;align=center;verticalAlign=middle;resizable=0;points=[];autosize=1;strokeColor=none;fillColor=none;" parent="1" vertex="1">
          <mxGeometry x="3636" y="1590" width="90" height="30" as="geometry" />
        </mxCell>
        <mxCell id="akrNPFHpnsv7y5JYQiHU-81" value="" style="rounded=1;whiteSpace=wrap;html=1;arcSize=4;" parent="1" vertex="1">
          <mxGeometry x="2803" y="1250" width="431.65" height="310" as="geometry" />
        </mxCell>
        <mxCell id="akrNPFHpnsv7y5JYQiHU-82" value="" style="rounded=1;whiteSpace=wrap;html=1;arcSize=4;" parent="1" vertex="1">
          <mxGeometry x="2954.08" y="1330" width="256" height="30" as="geometry" />
        </mxCell>
        <mxCell id="akrNPFHpnsv7y5JYQiHU-83" value="&lt;font face=&quot;Verdana&quot;&gt;&lt;span style=&quot;font-size: 14px;&quot;&gt;new Password&lt;/span&gt;&lt;/font&gt;" style="text;html=1;align=center;verticalAlign=middle;resizable=0;points=[];autosize=1;strokeColor=none;fillColor=none;" parent="1" vertex="1">
          <mxGeometry x="2817.65" y="1330" width="120" height="30" as="geometry" />
        </mxCell>
        <mxCell id="akrNPFHpnsv7y5JYQiHU-84" value="&lt;font face=&quot;Verdana&quot;&gt;&lt;span style=&quot;font-size: 14px;&quot;&gt;Confirm Password&lt;/span&gt;&lt;/font&gt;" style="text;html=1;align=center;verticalAlign=middle;resizable=0;points=[];autosize=1;strokeColor=none;fillColor=none;" parent="1" vertex="1">
          <mxGeometry x="2802.65" y="1387.5" width="150" height="30" as="geometry" />
        </mxCell>
        <mxCell id="akrNPFHpnsv7y5JYQiHU-85" value="" style="rounded=1;whiteSpace=wrap;html=1;arcSize=4;" parent="1" vertex="1">
          <mxGeometry x="2954.08" y="1387.5" width="256" height="30" as="geometry" />
        </mxCell>
        <mxCell id="akrNPFHpnsv7y5JYQiHU-86" value="" style="rounded=1;whiteSpace=wrap;html=1;fillColor=#60a917;fontColor=#ffffff;strokeColor=#2D7600;" parent="1" vertex="1">
          <mxGeometry x="2845" y="1490" width="120" height="35" as="geometry" />
        </mxCell>
        <mxCell id="akrNPFHpnsv7y5JYQiHU-93" style="edgeStyle=orthogonalEdgeStyle;rounded=0;orthogonalLoop=1;jettySize=auto;html=1;entryX=0.5;entryY=0;entryDx=0;entryDy=0;" parent="1" source="akrNPFHpnsv7y5JYQiHU-87" target="akrNPFHpnsv7y5JYQiHU-2" edge="1">
          <mxGeometry relative="1" as="geometry">
            <Array as="points">
              <mxPoint x="2905" y="1850" />
              <mxPoint x="3286" y="1850" />
            </Array>
          </mxGeometry>
        </mxCell>
        <mxCell id="akrNPFHpnsv7y5JYQiHU-87" value="&lt;font face=&quot;Verdana&quot;&gt;&lt;span style=&quot;font-size: 14px;&quot;&gt;Change Pass.&lt;/span&gt;&lt;/font&gt;" style="text;html=1;align=center;verticalAlign=middle;resizable=0;points=[];autosize=1;fillColor=none;fontColor=#FFFFFF;" parent="1" vertex="1">
          <mxGeometry x="2845" y="1492.5" width="120" height="30" as="geometry" />
        </mxCell>
        <mxCell id="akrNPFHpnsv7y5JYQiHU-88" value="" style="rounded=1;whiteSpace=wrap;html=1;fillColor=#1ba1e2;fontColor=#ffffff;strokeColor=#006EAF;" parent="1" vertex="1">
          <mxGeometry x="3066.35" y="1490" width="120" height="35" as="geometry" />
        </mxCell>
        <mxCell id="akrNPFHpnsv7y5JYQiHU-104" style="edgeStyle=orthogonalEdgeStyle;rounded=0;orthogonalLoop=1;jettySize=auto;html=1;" parent="1" source="akrNPFHpnsv7y5JYQiHU-89" edge="1">
          <mxGeometry relative="1" as="geometry">
            <mxPoint x="3126.3500000000004" y="1660" as="targetPoint" />
          </mxGeometry>
        </mxCell>
        <mxCell id="akrNPFHpnsv7y5JYQiHU-89" value="&lt;font face=&quot;Verdana&quot;&gt;&lt;span style=&quot;font-size: 14px;&quot;&gt;Cancel&lt;/span&gt;&lt;/font&gt;" style="text;html=1;align=center;verticalAlign=middle;resizable=0;points=[];autosize=1;fillColor=none;fontColor=#FFFFFF;" parent="1" vertex="1">
          <mxGeometry x="3091.35" y="1492.5" width="70" height="30" as="geometry" />
        </mxCell>
        <mxCell id="akrNPFHpnsv7y5JYQiHU-90" value="&lt;font style=&quot;font-size: 22px;&quot; face=&quot;Verdana&quot;&gt;Forget Password Page&lt;/font&gt;" style="text;html=1;align=center;verticalAlign=middle;resizable=0;points=[];autosize=1;strokeColor=none;fillColor=none;" parent="1" vertex="1">
          <mxGeometry x="2883.8199999999997" y="1262.5" width="270" height="40" as="geometry" />
        </mxCell>
        <mxCell id="akrNPFHpnsv7y5JYQiHU-92" value="&lt;font face=&quot;Verdana&quot;&gt;&lt;span style=&quot;font-size: 14px;&quot;&gt;Forward Password Page&lt;/span&gt;&lt;/font&gt;" style="text;html=1;align=center;verticalAlign=middle;resizable=0;points=[];autosize=1;strokeColor=none;fillColor=none;" parent="1" vertex="1">
          <mxGeometry x="3053.35" y="1757.5" width="190" height="30" as="geometry" />
        </mxCell>
        <mxCell id="akrNPFHpnsv7y5JYQiHU-94" value="&lt;font face=&quot;Verdana&quot;&gt;&lt;span style=&quot;font-size: 14px;&quot;&gt;Must Redirect to login page&lt;/span&gt;&lt;/font&gt;" style="text;html=1;align=center;verticalAlign=middle;resizable=0;points=[];autosize=1;strokeColor=none;fillColor=none;" parent="1" vertex="1">
          <mxGeometry x="2972.08" y="1855" width="220" height="30" as="geometry" />
        </mxCell>
        <mxCell id="akrNPFHpnsv7y5JYQiHU-95" style="edgeStyle=orthogonalEdgeStyle;rounded=0;orthogonalLoop=1;jettySize=auto;html=1;entryX=0.002;entryY=0.355;entryDx=0;entryDy=0;entryPerimeter=0;" parent="1" source="JUd5yHKMKR-s4hX0yN-B-12" target="akrNPFHpnsv7y5JYQiHU-2" edge="1">
          <mxGeometry relative="1" as="geometry">
            <Array as="points">
              <mxPoint x="2730" y="2100" />
            </Array>
          </mxGeometry>
        </mxCell>
        <mxCell id="akrNPFHpnsv7y5JYQiHU-96" value="&lt;font face=&quot;Verdana&quot;&gt;&lt;span style=&quot;font-size: 14px;&quot;&gt;After Clicking&amp;nbsp;&lt;br&gt;on Login Button&lt;br&gt;&lt;/span&gt;&lt;/font&gt;" style="text;html=1;align=center;verticalAlign=middle;resizable=0;points=[];autosize=1;strokeColor=none;fillColor=none;" parent="1" vertex="1">
          <mxGeometry x="2812.65" y="2112.5" width="140" height="50" as="geometry" />
        </mxCell>
        <mxCell id="akrNPFHpnsv7y5JYQiHU-97" value="&lt;font face=&quot;Verdana&quot;&gt;&lt;span style=&quot;font-size: 14px;&quot;&gt;false&lt;br&gt;&lt;/span&gt;&lt;/font&gt;" style="text;html=1;align=center;verticalAlign=middle;resizable=0;points=[];autosize=1;strokeColor=none;fillColor=none;" parent="1" vertex="1">
          <mxGeometry x="3251" y="2400" width="60" height="30" as="geometry" />
        </mxCell>
        <mxCell id="akrNPFHpnsv7y5JYQiHU-99" style="edgeStyle=orthogonalEdgeStyle;rounded=0;orthogonalLoop=1;jettySize=auto;html=1;" parent="1" source="akrNPFHpnsv7y5JYQiHU-98" edge="1">
          <mxGeometry relative="1" as="geometry">
            <mxPoint x="3280" y="1610" as="targetPoint" />
          </mxGeometry>
        </mxCell>
        <mxCell id="akrNPFHpnsv7y5JYQiHU-98" value="" style="strokeWidth=2;html=1;shape=mxgraph.flowchart.annotation_2;align=left;labelPosition=right;pointerEvents=1;" parent="1" vertex="1">
          <mxGeometry x="3328.35" y="1560" width="50" height="100" as="geometry" />
        </mxCell>
        <mxCell id="akrNPFHpnsv7y5JYQiHU-101" value="&lt;font face=&quot;Verdana&quot;&gt;&lt;span style=&quot;font-size: 14px;&quot;&gt;Validate OTP&lt;/span&gt;&lt;/font&gt;" style="text;html=1;align=center;verticalAlign=middle;resizable=0;points=[];autosize=1;strokeColor=none;fillColor=none;" parent="1" vertex="1">
          <mxGeometry x="3158.35" y="1595" width="110" height="30" as="geometry" />
        </mxCell>
        <mxCell id="akrNPFHpnsv7y5JYQiHU-103" value="&lt;font face=&quot;Verdana&quot;&gt;&lt;span style=&quot;font-size: 14px;&quot;&gt;redirect to&lt;br&gt;Welcome Page&lt;/span&gt;&lt;/font&gt;" style="text;html=1;align=center;verticalAlign=middle;resizable=0;points=[];autosize=1;strokeColor=none;fillColor=none;" parent="1" vertex="1">
          <mxGeometry x="3576.5" y="1867.5" width="130" height="50" as="geometry" />
        </mxCell>
        <mxCell id="akrNPFHpnsv7y5JYQiHU-105" value="&lt;font face=&quot;Verdana&quot;&gt;&lt;span style=&quot;font-size: 14px;&quot;&gt;should redirect&lt;br&gt;to welcome page&lt;br&gt;&lt;/span&gt;&lt;/font&gt;" style="text;html=1;align=center;verticalAlign=middle;resizable=0;points=[];autosize=1;strokeColor=none;fillColor=none;" parent="1" vertex="1">
          <mxGeometry x="3061.35" y="1657.5" width="140" height="50" as="geometry" />
        </mxCell>
        <mxCell id="akrNPFHpnsv7y5JYQiHU-107" value="&lt;font style=&quot;font-size: 14px;&quot; face=&quot;Verdana&quot;&gt;Product Name / Product Brand&lt;/font&gt;" style="text;html=1;align=center;verticalAlign=middle;resizable=0;points=[];autosize=1;strokeColor=none;fillColor=none;" parent="1" vertex="1">
          <mxGeometry x="2397" y="2440" width="240" height="30" as="geometry" />
        </mxCell>
        <mxCell id="akrNPFHpnsv7y5JYQiHU-109" value="&lt;font style=&quot;font-size: 14px;&quot; face=&quot;Verdana&quot;&gt;redirect to&lt;br&gt;welcome page&lt;br&gt;&lt;/font&gt;" style="text;html=1;align=center;verticalAlign=middle;resizable=0;points=[];autosize=1;strokeColor=none;fillColor=none;" parent="1" vertex="1">
          <mxGeometry x="2079" y="2545" width="120" height="50" as="geometry" />
        </mxCell>
        <mxCell id="akrNPFHpnsv7y5JYQiHU-111" style="edgeStyle=orthogonalEdgeStyle;rounded=0;orthogonalLoop=1;jettySize=auto;html=1;" parent="1" source="akrNPFHpnsv7y5JYQiHU-110" edge="1">
          <mxGeometry relative="1" as="geometry">
            <mxPoint x="2220" y="2870" as="targetPoint" />
          </mxGeometry>
        </mxCell>
        <mxCell id="akrNPFHpnsv7y5JYQiHU-110" value="" style="strokeWidth=2;html=1;shape=mxgraph.flowchart.annotation_2;align=left;labelPosition=right;pointerEvents=1;" parent="1" vertex="1">
          <mxGeometry x="2292" y="2820" width="50" height="100" as="geometry" />
        </mxCell>
        <mxCell id="akrNPFHpnsv7y5JYQiHU-112" value="&lt;font style=&quot;font-size: 14px;&quot; face=&quot;Verdana&quot;&gt;Random Product/&lt;br&gt;category&lt;br&gt;&lt;/font&gt;" style="text;html=1;align=center;verticalAlign=middle;resizable=0;points=[];autosize=1;strokeColor=none;fillColor=none;" parent="1" vertex="1">
          <mxGeometry x="2085" y="2845" width="150" height="50" as="geometry" />
        </mxCell>
        <mxCell id="akrNPFHpnsv7y5JYQiHU-115" value="&lt;font face=&quot;Verdana&quot;&gt;&lt;span style=&quot;font-size: 14px;&quot;&gt;should redirect&lt;br&gt;to your products&lt;br&gt;&lt;/span&gt;&lt;/font&gt;" style="text;html=1;align=center;verticalAlign=middle;resizable=0;points=[];autosize=1;strokeColor=none;fillColor=none;" parent="1" vertex="1">
          <mxGeometry x="2327" y="2107.5" width="140" height="50" as="geometry" />
        </mxCell>
        <mxCell id="akrNPFHpnsv7y5JYQiHU-117" value="&lt;font face=&quot;Verdana&quot;&gt;&lt;span style=&quot;font-size: 14px;&quot;&gt;Redirect to&amp;nbsp;&lt;br&gt;account setting&lt;br&gt;all changes should visible&lt;br&gt;&lt;/span&gt;&lt;/font&gt;" style="text;html=1;align=center;verticalAlign=middle;resizable=0;points=[];autosize=1;strokeColor=none;fillColor=none;" parent="1" vertex="1">
          <mxGeometry x="665.5" y="2035" width="200" height="60" as="geometry" />
        </mxCell>
        <mxCell id="akrNPFHpnsv7y5JYQiHU-118" value="" style="rounded=1;whiteSpace=wrap;html=1;arcSize=23;" parent="1" vertex="1">
          <mxGeometry x="1748" y="2380" width="490" height="60" as="geometry" />
        </mxCell>
        <mxCell id="akrNPFHpnsv7y5JYQiHU-119" value="" style="rounded=1;whiteSpace=wrap;html=1;" parent="1" vertex="1">
          <mxGeometry x="1855" y="2395" width="230" height="30" as="geometry" />
        </mxCell>
        <mxCell id="akrNPFHpnsv7y5JYQiHU-121" value="&lt;font style=&quot;font-size: 14px;&quot; face=&quot;Verdana&quot;&gt;LOGO&lt;/font&gt;" style="text;html=1;align=center;verticalAlign=middle;resizable=0;points=[];autosize=1;strokeColor=none;fillColor=none;" parent="1" vertex="1">
          <mxGeometry x="1763" y="2390" width="60" height="30" as="geometry" />
        </mxCell>
        <mxCell id="akrNPFHpnsv7y5JYQiHU-123" value="&lt;font style=&quot;font-size: 14px;&quot; face=&quot;Verdana&quot;&gt;Search...&lt;/font&gt;" style="text;html=1;align=center;verticalAlign=middle;resizable=0;points=[];autosize=1;strokeColor=none;fillColor=none;" parent="1" vertex="1">
          <mxGeometry x="1859" y="2395" width="90" height="30" as="geometry" />
        </mxCell>
        <mxCell id="akrNPFHpnsv7y5JYQiHU-126" value="" style="shape=image;html=1;verticalAlign=top;verticalLabelPosition=bottom;labelBackgroundColor=#ffffff;imageAspect=0;aspect=fixed;image=https://cdn1.iconfinder.com/data/icons/material-core/10/arrow-drop-down-128.png" parent="1" vertex="1">
          <mxGeometry x="2212" y="2405" width="12.5" height="12.5" as="geometry" />
        </mxCell>
        <mxCell id="akrNPFHpnsv7y5JYQiHU-127" value="" style="html=1;verticalLabelPosition=bottom;align=center;labelBackgroundColor=#ffffff;verticalAlign=top;strokeWidth=2;strokeColor=#0080F0;shadow=0;dashed=0;shape=mxgraph.ios7.icons.user;" parent="1" vertex="1">
          <mxGeometry x="2108" y="2399" width="20.25" height="20" as="geometry" />
        </mxCell>
        <mxCell id="akrNPFHpnsv7y5JYQiHU-128" value="&lt;font style=&quot;font-size: 14px;&quot; face=&quot;Verdana&quot;&gt;First Name&lt;/font&gt;" style="text;html=1;align=center;verticalAlign=middle;resizable=0;points=[];autosize=1;strokeColor=none;fillColor=none;" parent="1" vertex="1">
          <mxGeometry x="2120" y="2394" width="100" height="30" as="geometry" />
        </mxCell>
        <mxCell id="akrNPFHpnsv7y5JYQiHU-131" value="&lt;font face=&quot;Verdana&quot;&gt;&lt;span style=&quot;font-size: 14px;&quot;&gt;&lt;b&gt;User Product:&lt;br&gt;&lt;br&gt;&lt;/b&gt;&lt;/span&gt;&lt;/font&gt;" style="text;html=1;align=left;verticalAlign=middle;resizable=0;points=[];autosize=1;strokeColor=none;fillColor=none;" parent="1" vertex="1">
          <mxGeometry x="3162" y="3205" width="130" height="50" as="geometry" />
        </mxCell>
        <mxCell id="akrNPFHpnsv7y5JYQiHU-136" value="" style="shape=partialRectangle;whiteSpace=wrap;html=1;right=0;top=0;bottom=0;fillColor=none;routingCenterX=-0.5;rotation=90;" parent="1" vertex="1">
          <mxGeometry x="3343.62" y="3015.46" width="10.92" height="370" as="geometry" />
        </mxCell>
        <mxCell id="akrNPFHpnsv7y5JYQiHU-137" value="" style="shape=partialRectangle;whiteSpace=wrap;html=1;right=0;top=0;bottom=0;fillColor=none;routingCenterX=-0.5;rotation=90;" parent="1" vertex="1">
          <mxGeometry x="3289.08" y="3180" width="120" height="370" as="geometry" />
        </mxCell>
        <mxCell id="akrNPFHpnsv7y5JYQiHU-138" value="" style="ellipse;whiteSpace=wrap;html=1;fillColor=#e6d0de;strokeColor=#996185;gradientColor=#d5739d;" parent="1" vertex="1">
          <mxGeometry x="3163.43" y="3237.5" width="46.65" height="45" as="geometry" />
        </mxCell>
        <mxCell id="akrNPFHpnsv7y5JYQiHU-139" value="&lt;font face=&quot;Verdana&quot;&gt;&lt;span style=&quot;font-size: 14px;&quot;&gt;Name&lt;br&gt;Description&lt;br&gt;&lt;/span&gt;&lt;/font&gt;" style="text;html=1;align=left;verticalAlign=middle;resizable=0;points=[];autosize=1;strokeColor=none;fillColor=none;" parent="1" vertex="1">
          <mxGeometry x="3213.35" y="3235" width="100" height="50" as="geometry" />
        </mxCell>
        <mxCell id="akrNPFHpnsv7y5JYQiHU-144" value="&lt;font face=&quot;Verdana&quot;&gt;&lt;span style=&quot;font-size: 14px;&quot;&gt;&lt;b&gt;Owner Product:&lt;br&gt;&lt;br&gt;&lt;/b&gt;&lt;/span&gt;&lt;/font&gt;" style="text;html=1;align=left;verticalAlign=middle;resizable=0;points=[];autosize=1;strokeColor=none;fillColor=none;" parent="1" vertex="1">
          <mxGeometry x="3413" y="3205" width="150" height="50" as="geometry" />
        </mxCell>
        <mxCell id="akrNPFHpnsv7y5JYQiHU-145" value="" style="ellipse;whiteSpace=wrap;html=1;fillColor=#d5e8d4;strokeColor=#82b366;gradientColor=#97d077;" parent="1" vertex="1">
          <mxGeometry x="3496.5" y="3240" width="46.65" height="45" as="geometry" />
        </mxCell>
        <mxCell id="akrNPFHpnsv7y5JYQiHU-146" value="&lt;div style=&quot;text-align: right;&quot;&gt;&lt;span style=&quot;font-size: 14px; font-family: Verdana; background-color: initial;&quot;&gt;Name&lt;/span&gt;&lt;/div&gt;&lt;font face=&quot;Verdana&quot;&gt;&lt;div style=&quot;text-align: right;&quot;&gt;&lt;span style=&quot;font-size: 14px; background-color: initial;&quot;&gt;Description&lt;/span&gt;&lt;/div&gt;&lt;/font&gt;" style="text;html=1;align=left;verticalAlign=middle;resizable=0;points=[];autosize=1;strokeColor=none;fillColor=none;" parent="1" vertex="1">
          <mxGeometry x="3401.65" y="3235" width="100" height="50" as="geometry" />
        </mxCell>
        <mxCell id="akrNPFHpnsv7y5JYQiHU-149" value="" style="shape=image;html=1;verticalAlign=top;verticalLabelPosition=bottom;labelBackgroundColor=#ffffff;imageAspect=0;aspect=fixed;image=https://cdn2.iconfinder.com/data/icons/navigation-set-arrows-part-two/32/Arrow_Drop_Down_Circle-128.png" parent="1" vertex="1">
          <mxGeometry x="3300.35" y="3316" width="28" height="28" as="geometry" />
        </mxCell>
        <mxCell id="akrNPFHpnsv7y5JYQiHU-150" value="&lt;font face=&quot;Verdana&quot;&gt;&lt;span style=&quot;font-size: 14px;&quot;&gt;Exchange Product&lt;/span&gt;&lt;/font&gt;" style="text;html=1;align=center;verticalAlign=middle;resizable=0;points=[];autosize=1;strokeColor=none;fillColor=none;" parent="1" vertex="1">
          <mxGeometry x="3153.8199999999993" y="3315" width="150" height="30" as="geometry" />
        </mxCell>
        <mxCell id="akrNPFHpnsv7y5JYQiHU-152" value="" style="sketch=0;outlineConnect=0;fontColor=#232F3E;gradientColor=none;fillColor=#8C4FFF;strokeColor=none;dashed=0;verticalLabelPosition=bottom;verticalAlign=top;align=center;html=1;fontSize=12;fontStyle=0;aspect=fixed;pointerEvents=1;shape=mxgraph.aws4.data_exchange_for_apis;" parent="1" vertex="1">
          <mxGeometry x="3328.35" y="3240" width="40" height="40" as="geometry" />
        </mxCell>
        <mxCell id="akrNPFHpnsv7y5JYQiHU-153" value="" style="rounded=1;whiteSpace=wrap;html=1;dashed=1;" parent="1" vertex="1">
          <mxGeometry x="3822.82" y="1822.5" width="370" height="45" as="geometry" />
        </mxCell>
        <mxCell id="akrNPFHpnsv7y5JYQiHU-154" value="&lt;font face=&quot;Verdana&quot;&gt;&lt;span style=&quot;font-size: 14px;&quot;&gt;Upload Images&lt;/span&gt;&lt;/font&gt;" style="text;html=1;align=center;verticalAlign=middle;resizable=0;points=[];autosize=1;strokeColor=none;fillColor=none;" parent="1" vertex="1">
          <mxGeometry x="3933.5299999999997" y="1787.5" width="130" height="30" as="geometry" />
        </mxCell>
        <mxCell id="akrNPFHpnsv7y5JYQiHU-155" value="&lt;font face=&quot;Verdana&quot;&gt;&lt;span style=&quot;font-size: 14px;&quot;&gt;Avatar&lt;/span&gt;&lt;/font&gt;" style="text;html=1;align=center;verticalAlign=middle;resizable=0;points=[];autosize=1;strokeColor=none;fillColor=none;" parent="1" vertex="1">
          <mxGeometry x="3963.5299999999997" y="1830" width="70" height="30" as="geometry" />
        </mxCell>
      </root>
    </mxGraphModel>
  </diagram>
</mxfile>
